<svg width="157" height="115" viewBox="0 0 157 115" fill="none" xmlns="http://www.w3.org/2000/svg">
<rect width="156.226" height="115" rx="10.8491" fill="black"/>
<path d="M138.012 76.6376C138.012 80.1373 137.344 83.4206 136.007 86.4877C134.67 89.5548 132.841 92.2483 130.521 94.5682C128.241 96.8489 125.567 98.6577 122.5 99.9946C119.433 101.332 116.149 102 112.65 102H70.3595V17.4195H112.65C116.149 17.4195 119.433 18.088 122.5 19.4249C125.567 20.7618 128.241 22.5903 130.521 24.9102C132.841 27.1909 134.67 29.8647 136.007 32.9318C137.344 35.9989 138.012 39.2822 138.012 42.7818C138.012 44.3547 137.796 45.9669 137.363 47.6184C136.931 49.2699 136.321 50.8624 135.535 52.3959C134.748 53.9295 133.805 55.3254 132.704 56.5837C131.603 57.842 130.384 58.884 129.047 59.7097C130.423 60.4569 131.662 61.4792 132.763 62.7768C133.864 64.0351 134.807 65.431 135.594 66.9646C136.38 68.4981 136.97 70.1103 137.363 71.8011C137.796 73.4526 138.012 75.0648 138.012 76.6376ZM87.2874 85.0721H112.65C113.829 85.0721 114.93 84.8558 115.953 84.4233C116.975 83.9908 117.86 83.4009 118.607 82.6538C119.393 81.8674 120.003 80.963 120.435 79.9406C120.868 78.9183 121.084 77.8173 121.084 76.6376C121.084 75.458 120.868 74.357 120.435 73.3346C120.003 72.3123 119.393 71.4275 118.607 70.6804C117.86 69.894 116.975 69.2845 115.953 68.852C114.93 68.4195 113.829 68.2032 112.65 68.2032H87.2874V85.0721ZM87.2874 51.2753H112.65C113.829 51.2753 114.93 51.059 115.953 50.6265C116.975 50.1939 117.86 49.6041 118.607 48.857C119.393 48.0706 120.003 47.1662 120.435 46.1438C120.868 45.0822 121.084 43.9615 121.084 42.7818C121.084 41.6022 120.868 40.5012 120.435 39.4788C120.003 38.4565 119.393 37.5717 118.607 36.8246C117.86 36.0382 116.975 35.4287 115.953 34.9962C114.93 34.5637 113.829 34.3474 112.65 34.3474H87.2874V51.2753Z" fill="white"/>
<path d="M36.5968 102H19.6689V17.4195H36.5968V51.2753H70.3936V17.4195H87.3215V102H70.3936V68.2032H36.5968V102Z" fill="white"/>
</svg>
