<svg width="57" height="57" viewBox="0 0 57 57" fill="none" xmlns="http://www.w3.org/2000/svg">
<g clip-path="url(#clip0_26_94)">
<path d="M28.7943 0C13.2105 0 0.588379 12.6221 0.588379 28.2059C0.588379 40.687 8.66231 51.2289 19.8742 54.9662C21.2844 55.213 21.8133 54.3668 21.8133 53.6264C21.8133 52.9565 21.778 50.7353 21.778 48.3731C14.6913 49.6776 12.8579 46.6455 12.2938 45.0589C11.9765 44.248 10.6015 41.7447 9.40272 41.0748C8.41551 40.546 7.00522 39.2414 9.36746 39.2062C11.5887 39.1709 13.1753 41.2511 13.7041 42.0973C16.2426 46.3634 20.2972 45.1647 21.9191 44.4243C22.1659 42.5909 22.9063 41.3569 23.7172 40.6517C17.4414 39.9466 10.8835 37.5138 10.8835 26.7251C10.8835 23.6577 11.9765 21.1192 13.7746 19.1447C13.4926 18.4396 12.5054 15.5485 14.0567 11.6702C14.0567 11.6702 16.4189 10.9298 21.8133 14.5613C24.0698 13.9267 26.4673 13.6093 28.8648 13.6093C31.2623 13.6093 33.6598 13.9267 35.9162 14.5613C41.3106 10.8945 43.6729 11.6702 43.6729 11.6702C45.2242 15.5485 44.237 18.4396 43.9549 19.1447C45.753 21.1192 46.846 23.6224 46.846 26.7251C46.846 37.5491 40.2529 39.9466 33.9771 40.6517C34.9996 41.5332 35.881 43.2255 35.881 45.8698C35.881 49.6424 35.8457 52.6745 35.8457 53.6264C35.8457 54.3668 36.3746 55.2483 37.7849 54.9662C43.3846 53.0764 48.2505 49.4778 51.6975 44.6773C55.1446 39.8767 56.9992 34.1159 57.0001 28.2059C57.0001 12.6221 44.378 0 28.7943 0Z" fill="white"/>
</g>
<defs>
<clipPath id="clip0_26_94">
<rect width="56.4118" height="56.4118" fill="white" transform="translate(0.588379)"/>
</clipPath>
</defs>
</svg>
