<svg width="57" height="57" viewBox="0 0 57 57" fill="none" xmlns="http://www.w3.org/2000/svg">
<path d="M0 4.04049C0 1.8087 1.85454 0 4.14274 0H52.269C54.5572 0 56.4118 1.8087 56.4118 4.04049V52.3713C56.4118 54.6031 54.5572 56.4118 52.269 56.4118H4.14274C1.85454 56.4118 0 54.6031 0 52.3713V4.04049ZM17.4277 47.2237V21.7503H8.96242V47.2237H17.4277ZM13.1968 18.2704C16.1479 18.2704 17.9848 16.3171 17.9848 13.8702C17.9319 11.3705 16.1514 9.47013 13.2532 9.47013C10.3551 9.47013 8.46177 11.374 8.46177 13.8702C8.46177 16.3171 10.2987 18.2704 13.1404 18.2704H13.1968V18.2704ZM30.5011 47.2237V32.9974C30.5011 32.2358 30.5575 31.4742 30.7832 30.9313C31.3931 29.4117 32.7858 27.8357 35.1269 27.8357C38.1908 27.8357 39.4142 30.1697 39.4142 33.5967V47.2237H47.8795V32.6131C47.8795 24.7859 43.705 21.1474 38.1344 21.1474C33.6426 21.1474 31.6294 23.6154 30.5011 25.3536V25.4417H30.4447C30.4635 25.4123 30.4823 25.3829 30.5011 25.3536V21.7503H22.0394C22.1451 24.1407 22.0394 47.2237 22.0394 47.2237H30.5011Z" fill="white"/>
</svg>
