<svg width="226" height="74" viewBox="0 0 226 74" fill="none" xmlns="http://www.w3.org/2000/svg">
<path d="M11.9776 67H0.455296V9.42839H11.9776V32.4731H34.9822V9.42839H46.5046V67H34.9822V43.9954H11.9776V67Z" fill="white"/>
<path d="M98.5414 46H95.1627V29.1181H98.5414V35.8756H105.287V29.1181H108.666V46H105.287V39.2543H98.5414V46ZM116.294 42.9156C116.42 42.9548 116.546 42.9823 116.671 42.998C116.797 43.0058 116.922 43.0098 117.048 43.0098C117.362 43.0098 117.664 42.9666 117.954 42.8803C118.245 42.7939 118.516 42.6723 118.767 42.5153C119.026 42.3505 119.253 42.1543 119.45 41.9267C119.654 41.6912 119.818 41.4322 119.944 41.1497L122.299 43.516C122 43.9398 121.655 44.3204 121.263 44.6579C120.878 44.9954 120.458 45.2819 120.003 45.5173C119.555 45.7528 119.081 45.9294 118.578 46.0471C118.084 46.1727 117.574 46.2355 117.048 46.2355C116.161 46.2355 115.325 46.0706 114.54 45.741C113.763 45.4114 113.081 44.9522 112.492 44.3636C111.911 43.775 111.452 43.0765 111.115 42.2681C110.777 41.4519 110.608 40.5571 110.608 39.5839C110.608 38.5872 110.777 37.6768 111.115 36.8527C111.452 36.0286 111.911 35.3262 112.492 34.7454C113.081 34.1646 113.763 33.7133 114.54 33.3916C115.325 33.0698 116.161 32.9089 117.048 32.9089C117.574 32.9089 118.088 32.9717 118.59 33.0972C119.092 33.2228 119.567 33.4033 120.015 33.6388C120.47 33.8742 120.894 34.1646 121.286 34.5099C121.678 34.8474 122.024 35.2281 122.322 35.6519L116.294 42.9156ZM117.943 36.2876C117.794 36.2327 117.644 36.1974 117.495 36.1817C117.354 36.166 117.205 36.1581 117.048 36.1581C116.608 36.1581 116.192 36.2405 115.8 36.4053C115.415 36.5623 115.078 36.7899 114.788 37.0881C114.505 37.3864 114.281 37.7474 114.117 38.1712C113.952 38.5872 113.869 39.0581 113.869 39.5839C113.869 39.7017 113.873 39.8351 113.881 39.9842C113.897 40.1333 113.916 40.2864 113.94 40.4433C113.971 40.5925 114.007 40.7376 114.046 40.8789C114.085 41.0202 114.136 41.1458 114.199 41.2556L117.943 36.2876ZM127.161 46H123.947V33.3916H124.724L125.783 34.8867C126.301 34.4158 126.89 34.0547 127.549 33.8036C128.208 33.5446 128.891 33.4151 129.598 33.4151H132.435V36.6172H129.598C129.26 36.6172 128.942 36.68 128.644 36.8056C128.346 36.9312 128.087 37.1038 127.867 37.3236C127.647 37.5434 127.475 37.8023 127.349 38.1006C127.223 38.3988 127.161 38.7167 127.161 39.0542V46ZM145.879 39.5839C145.879 40.5257 145.71 41.4048 145.373 42.221C145.035 43.0294 144.576 43.7318 143.995 44.3283C143.415 44.9169 142.732 45.3839 141.947 45.7292C141.17 46.0667 140.334 46.2355 139.439 46.2355C138.553 46.2355 137.717 46.0667 136.932 45.7292C136.155 45.3839 135.472 44.9169 134.883 44.3283C134.303 43.7318 133.844 43.0294 133.506 42.221C133.169 41.4048 133 40.5257 133 39.5839C133 38.6264 133.169 37.7396 133.506 36.9233C133.844 36.1071 134.303 35.4047 134.883 34.816C135.472 34.2196 136.155 33.7526 136.932 33.4151C137.717 33.0776 138.553 32.9089 139.439 32.9089C140.334 32.9089 141.17 33.0698 141.947 33.3916C142.732 33.7055 143.415 34.1568 143.995 34.7454C144.576 35.3262 145.035 36.0286 145.373 36.8527C145.71 37.6689 145.879 38.5793 145.879 39.5839ZM142.642 39.5839C142.642 39.0659 142.555 38.599 142.383 38.183C142.218 37.7592 141.99 37.3982 141.7 37.0999C141.409 36.7938 141.068 36.5623 140.676 36.4053C140.291 36.2405 139.879 36.1581 139.439 36.1581C139 36.1581 138.584 36.2405 138.192 36.4053C137.807 36.5623 137.469 36.7938 137.179 37.0999C136.897 37.3982 136.673 37.7592 136.508 38.183C136.343 38.599 136.261 39.0659 136.261 39.5839C136.261 40.0705 136.343 40.5218 136.508 40.9378C136.673 41.3537 136.897 41.7148 137.179 42.0209C137.469 42.327 137.807 42.5703 138.192 42.7508C138.584 42.9234 139 43.0098 139.439 43.0098C139.879 43.0098 140.291 42.9274 140.676 42.7625C141.068 42.5977 141.409 42.3662 141.7 42.068C141.99 41.7697 142.218 41.4087 142.383 40.9849C142.555 40.5611 142.642 40.0941 142.642 39.5839ZM152.672 42.9156C152.797 42.9548 152.923 42.9823 153.049 42.998C153.174 43.0058 153.3 43.0098 153.425 43.0098C153.739 43.0098 154.041 42.9666 154.332 42.8803C154.622 42.7939 154.893 42.6723 155.144 42.5153C155.403 42.3505 155.631 42.1543 155.827 41.9267C156.031 41.6912 156.196 41.4322 156.321 41.1497L158.676 43.516C158.378 43.9398 158.032 44.3204 157.64 44.6579C157.255 44.9954 156.835 45.2819 156.38 45.5173C155.933 45.7528 155.458 45.9294 154.956 46.0471C154.461 46.1727 153.951 46.2355 153.425 46.2355C152.538 46.2355 151.703 46.0706 150.918 45.741C150.141 45.4114 149.458 44.9522 148.869 44.3636C148.288 43.775 147.829 43.0765 147.492 42.2681C147.154 41.4519 146.986 40.5571 146.986 39.5839C146.986 38.5872 147.154 37.6768 147.492 36.8527C147.829 36.0286 148.288 35.3262 148.869 34.7454C149.458 34.1646 150.141 33.7133 150.918 33.3916C151.703 33.0698 152.538 32.9089 153.425 32.9089C153.951 32.9089 154.465 32.9717 154.967 33.0972C155.47 33.2228 155.945 33.4033 156.392 33.6388C156.847 33.8742 157.271 34.1646 157.663 34.5099C158.056 34.8474 158.401 35.2281 158.699 35.6519L152.672 42.9156ZM154.32 36.2876C154.171 36.2327 154.022 36.1974 153.873 36.1817C153.731 36.166 153.582 36.1581 153.425 36.1581C152.986 36.1581 152.57 36.2405 152.177 36.4053C151.793 36.5623 151.455 36.7899 151.165 37.0881C150.882 37.3864 150.659 37.7474 150.494 38.1712C150.329 38.5872 150.247 39.0581 150.247 39.5839C150.247 39.7017 150.251 39.8351 150.258 39.9842C150.274 40.1333 150.294 40.2864 150.317 40.4433C150.349 40.5925 150.384 40.7376 150.423 40.8789C150.462 41.0202 150.513 41.1458 150.576 41.2556L154.32 36.2876ZM167.246 46H159.9V42.7979H167.246C167.466 42.7979 167.654 42.7194 167.811 42.5624C167.968 42.4054 168.047 42.2171 168.047 41.9973C168.047 41.7697 167.968 41.6206 167.811 41.55C167.654 41.4793 167.466 41.444 167.246 41.444H163.903C163.346 41.444 162.824 41.3381 162.337 41.1261C161.851 40.9142 161.427 40.6278 161.066 40.2667C160.705 39.8979 160.418 39.4701 160.206 38.9835C160.002 38.4969 159.9 37.975 159.9 37.4178C159.9 36.8605 160.002 36.3386 160.206 35.852C160.418 35.3654 160.705 34.9416 161.066 34.5806C161.427 34.2196 161.851 33.937 162.337 33.733C162.824 33.521 163.346 33.4151 163.903 33.4151H170.413V36.6172H163.903C163.683 36.6172 163.495 36.6957 163.338 36.8527C163.181 37.0097 163.102 37.198 163.102 37.4178C163.102 37.6454 163.181 37.8416 163.338 38.0064C163.495 38.1634 163.683 38.2419 163.903 38.2419H167.246C167.796 38.2419 168.314 38.336 168.8 38.5244C169.287 38.7049 169.711 38.96 170.072 39.2896C170.433 39.6193 170.719 40.0156 170.931 40.4787C171.143 40.9417 171.249 41.4479 171.249 41.9973C171.249 42.5546 171.143 43.0765 170.931 43.5631C170.719 44.0418 170.433 44.4656 170.072 44.8345C169.711 45.1955 169.287 45.482 168.8 45.6939C168.314 45.898 167.796 46 167.246 46ZM192.345 39.5839C192.345 40.5728 192.177 41.4754 191.839 42.2916C191.502 43.1079 191.043 43.8103 190.462 44.3989C189.881 44.9797 189.198 45.431 188.413 45.7528C187.636 46.0746 186.801 46.2355 185.906 46.2355C185.019 46.2355 184.183 46.0706 183.398 45.741C182.621 45.4114 181.938 44.9522 181.35 44.3636C180.769 43.775 180.31 43.0765 179.972 42.2681C179.635 41.4519 179.466 40.5571 179.466 39.5839V28.3764H182.692V34.2627C182.865 34.043 183.073 33.8468 183.316 33.6741C183.567 33.5014 183.834 33.3602 184.116 33.2503C184.407 33.1404 184.705 33.058 185.011 33.0031C185.317 32.9403 185.615 32.9089 185.906 32.9089C186.801 32.9089 187.636 33.0776 188.413 33.4151C189.198 33.7447 189.881 34.2078 190.462 34.8043C191.043 35.4007 191.502 36.1071 191.839 36.9233C192.177 37.7317 192.345 38.6186 192.345 39.5839ZM189.108 39.5839C189.108 39.0973 189.022 38.6461 188.849 38.2301C188.684 37.8063 188.457 37.4413 188.166 37.1352C187.876 36.8291 187.534 36.5898 187.142 36.4171C186.757 36.2444 186.345 36.1581 185.906 36.1581C185.466 36.1581 185.05 36.2562 184.658 36.4524C184.273 36.6408 183.936 36.8959 183.646 37.2176C183.355 37.5316 183.128 37.8965 182.963 38.3125C182.798 38.7206 182.715 39.1444 182.715 39.5839C182.715 40.0705 182.798 40.5218 182.963 40.9378C183.128 41.3537 183.355 41.7148 183.646 42.0209C183.936 42.327 184.273 42.5703 184.658 42.7508C185.05 42.9234 185.466 43.0098 185.906 43.0098C186.345 43.0098 186.757 42.9234 187.142 42.7508C187.534 42.5703 187.876 42.327 188.166 42.0209C188.457 41.7148 188.684 41.3537 188.849 40.9378C189.022 40.5218 189.108 40.0705 189.108 39.5839ZM206.32 39.5839C206.32 40.5257 206.151 41.4048 205.813 42.221C205.476 43.0294 205.017 43.7318 204.436 44.3283C203.855 44.9169 203.172 45.3839 202.387 45.7292C201.61 46.0667 200.775 46.2355 199.88 46.2355C198.993 46.2355 198.157 46.0667 197.372 45.7292C196.595 45.3839 195.913 44.9169 195.324 44.3283C194.743 43.7318 194.284 43.0294 193.947 42.221C193.609 41.4048 193.44 40.5257 193.44 39.5839C193.44 38.6264 193.609 37.7396 193.947 36.9233C194.284 36.1071 194.743 35.4047 195.324 34.816C195.913 34.2196 196.595 33.7526 197.372 33.4151C198.157 33.0776 198.993 32.9089 199.88 32.9089C200.775 32.9089 201.61 33.0698 202.387 33.3916C203.172 33.7055 203.855 34.1568 204.436 34.7454C205.017 35.3262 205.476 36.0286 205.813 36.8527C206.151 37.6689 206.32 38.5793 206.32 39.5839ZM203.082 39.5839C203.082 39.0659 202.996 38.599 202.823 38.183C202.658 37.7592 202.431 37.3982 202.14 37.0999C201.85 36.7938 201.508 36.5623 201.116 36.4053C200.731 36.2405 200.319 36.1581 199.88 36.1581C199.44 36.1581 199.024 36.2405 198.632 36.4053C198.247 36.5623 197.91 36.7938 197.62 37.0999C197.337 37.3982 197.113 37.7592 196.949 38.183C196.784 38.599 196.701 39.0659 196.701 39.5839C196.701 40.0705 196.784 40.5218 196.949 40.9378C197.113 41.3537 197.337 41.7148 197.62 42.0209C197.91 42.327 198.247 42.5703 198.632 42.7508C199.024 42.9234 199.44 43.0098 199.88 43.0098C200.319 43.0098 200.731 42.9274 201.116 42.7625C201.508 42.5977 201.85 42.3662 202.14 42.068C202.431 41.7697 202.658 41.4087 202.823 40.9849C202.996 40.5611 203.082 40.0941 203.082 39.5839ZM214.325 46C213.548 46 212.818 45.8548 212.135 45.5644C211.452 45.2662 210.852 44.862 210.334 44.3518C209.824 43.8338 209.42 43.2334 209.121 42.5506C208.831 41.8678 208.686 41.1379 208.686 40.3609V36.6172H207.12V33.4151H208.686V28.3764H211.888V33.4151H216.762V36.6172H211.888V40.3609C211.888 40.6984 211.951 41.0163 212.076 41.3145C212.202 41.6049 212.375 41.86 212.594 42.0797C212.814 42.2995 213.073 42.4761 213.371 42.6095C213.67 42.7351 213.987 42.7979 214.325 42.7979H216.762V46H214.325Z" fill="white"/>
<path d="M81.0082 49.7365C81.0082 52.1186 80.5532 54.3535 79.6432 56.4412C78.7332 58.5289 77.4886 60.3623 75.9095 61.9414C74.3571 63.4938 72.5371 64.725 70.4494 65.635C68.3618 66.545 66.1269 67 63.7448 67H34.959V9.42839H63.7448C66.1269 9.42839 68.3618 9.88339 70.4494 10.7934C72.5371 11.7034 74.3571 12.948 75.9095 14.5271C77.4886 16.0795 78.7332 17.8995 79.6432 19.9872C80.5532 22.0749 81.0082 24.3098 81.0082 26.6918C81.0082 27.7624 80.861 28.8598 80.5666 29.9839C80.2722 31.1081 79.8573 32.1921 79.322 33.2359C78.7867 34.2797 78.1444 35.2299 77.395 36.0864C76.6455 36.9429 75.8158 37.6521 74.9058 38.2142C75.8426 38.7227 76.6857 39.4186 77.4351 40.3019C78.1845 41.1583 78.8269 42.1085 79.3622 43.1523C79.8975 44.1962 80.299 45.2935 80.5666 46.4444C80.861 47.5686 81.0082 48.6659 81.0082 49.7365ZM46.4813 55.4776H63.7448C64.5477 55.4776 65.2972 55.3304 65.9931 55.036C66.6889 54.7416 67.2912 54.3401 67.7997 53.8316C68.335 53.2963 68.7499 52.6807 69.0443 51.9848C69.3387 51.2889 69.4859 50.5395 69.4859 49.7365C69.4859 48.9336 69.3387 48.1842 69.0443 47.4883C68.7499 46.7924 68.335 46.1902 67.7997 45.6816C67.2912 45.1463 66.6889 44.7315 65.9931 44.4371C65.2972 44.1427 64.5477 43.9954 63.7448 43.9954H46.4813V55.4776ZM46.4813 32.4731H63.7448C64.5477 32.4731 65.2972 32.3259 65.9931 32.0315C66.6889 31.7371 67.2912 31.3356 67.7997 30.827C68.335 30.2917 68.7499 29.6761 69.0443 28.9803C69.3387 28.2576 69.4859 27.4948 69.4859 26.6918C69.4859 25.8889 69.3387 25.1395 69.0443 24.4436C68.7499 23.7477 68.335 23.1455 67.7997 22.6369C67.2912 22.1016 66.6889 21.6868 65.9931 21.3924C65.2972 21.0979 64.5477 20.9507 63.7448 20.9507H46.4813V32.4731Z" fill="white"/>
</svg>
