<svg width="148" height="74" viewBox="0 0 148 74" fill="none" xmlns="http://www.w3.org/2000/svg">
<path d="M11.9776 67H0.455296V9.42839H11.9776V32.4731H34.9822V9.42839H46.5046V67H34.9822V43.9954H11.9776V67Z" fill="white"/>
<path d="M92.7741 35H90.305V22.6632H92.7741V27.6014H97.7036V22.6632H100.173V35H97.7036V30.0705H92.7741V35ZM105.748 32.746C105.839 32.7747 105.931 32.7948 106.023 32.8062C106.115 32.812 106.206 32.8148 106.298 32.8148C106.528 32.8148 106.748 32.7833 106.961 32.7202C107.173 32.6571 107.371 32.5682 107.554 32.4535C107.743 32.3331 107.91 32.1897 108.053 32.0233C108.202 31.8513 108.323 31.662 108.414 31.4555L110.135 33.1848C109.917 33.4945 109.665 33.7726 109.378 34.0193C109.097 34.2659 108.79 34.4752 108.457 34.6473C108.131 34.8193 107.784 34.9484 107.416 35.0344C107.055 35.1262 106.682 35.1721 106.298 35.1721C105.65 35.1721 105.039 35.0516 104.466 34.8107C103.898 34.5698 103.399 34.2343 102.969 33.8042C102.544 33.374 102.209 32.8636 101.962 32.2728C101.716 31.6764 101.592 31.0225 101.592 30.3113C101.592 29.5829 101.716 28.9176 101.962 28.3154C102.209 27.7132 102.544 27.1999 102.969 26.7755C103.399 26.3511 103.898 26.0213 104.466 25.7861C105.039 25.551 105.65 25.4334 106.298 25.4334C106.682 25.4334 107.058 25.4793 107.425 25.5711C107.792 25.6628 108.139 25.7947 108.466 25.9668C108.799 26.1389 109.108 26.3511 109.395 26.6034C109.682 26.85 109.934 27.1282 110.152 27.4379L105.748 32.746ZM106.952 27.9025C106.843 27.8623 106.734 27.8365 106.625 27.8251C106.522 27.8136 106.413 27.8078 106.298 27.8078C105.977 27.8078 105.673 27.8681 105.386 27.9885C105.105 28.1032 104.859 28.2695 104.646 28.4875C104.44 28.7054 104.276 28.9693 104.156 29.279C104.035 29.5829 103.975 29.9271 103.975 30.3113C103.975 30.3974 103.978 30.4949 103.984 30.6038C103.995 30.7128 104.01 30.8247 104.027 30.9394C104.05 31.0483 104.076 31.1544 104.104 31.2577C104.133 31.3609 104.17 31.4527 104.216 31.533L106.952 27.9025ZM113.688 35H111.339V25.7861H111.907L112.682 26.8787C113.06 26.5346 113.49 26.2708 113.972 26.0872C114.454 25.898 114.953 25.8033 115.469 25.8033H117.542V28.1434H115.469C115.222 28.1434 114.99 28.1893 114.772 28.281C114.554 28.3728 114.365 28.499 114.204 28.6596C114.044 28.8201 113.918 29.0094 113.826 29.2274C113.734 29.4453 113.688 29.6776 113.688 29.9242V35ZM127.367 30.3113C127.367 30.9996 127.244 31.6419 126.997 32.2384C126.75 32.8292 126.415 33.3425 125.99 33.7784C125.566 34.2085 125.067 34.5498 124.494 34.8021C123.926 35.0488 123.315 35.1721 122.661 35.1721C122.013 35.1721 121.402 35.0488 120.829 34.8021C120.261 34.5498 119.762 34.2085 119.332 33.7784C118.907 33.3425 118.572 32.8292 118.325 32.2384C118.079 31.6419 117.955 30.9996 117.955 30.3113C117.955 29.6116 118.079 28.9635 118.325 28.367C118.572 27.7706 118.907 27.2573 119.332 26.8271C119.762 26.3912 120.261 26.05 120.829 25.8033C121.402 25.5567 122.013 25.4334 122.661 25.4334C123.315 25.4334 123.926 25.551 124.494 25.7861C125.067 26.0155 125.566 26.3453 125.99 26.7755C126.415 27.1999 126.75 27.7132 126.997 28.3154C127.244 28.9119 127.367 29.5772 127.367 30.3113ZM125.001 30.3113C125.001 29.9328 124.938 29.5915 124.812 29.2876C124.691 28.9779 124.525 28.714 124.313 28.4961C124.101 28.2724 123.851 28.1032 123.564 27.9885C123.283 27.8681 122.982 27.8078 122.661 27.8078C122.34 27.8078 122.036 27.8681 121.749 27.9885C121.468 28.1032 121.222 28.2724 121.009 28.4961C120.803 28.714 120.639 28.9779 120.519 29.2876C120.398 29.5915 120.338 29.9328 120.338 30.3113C120.338 30.6669 120.398 30.9967 120.519 31.3007C120.639 31.6047 120.803 31.8685 121.009 32.0922C121.222 32.3158 121.468 32.4936 121.749 32.6256C122.036 32.7517 122.34 32.8148 122.661 32.8148C122.982 32.8148 123.283 32.7546 123.564 32.6342C123.851 32.5137 124.101 32.3445 124.313 32.1266C124.525 31.9086 124.691 31.6448 124.812 31.3351C124.938 31.0254 125.001 30.6841 125.001 30.3113ZM132.331 32.746C132.423 32.7747 132.514 32.7948 132.606 32.8062C132.698 32.812 132.79 32.8148 132.882 32.8148C133.111 32.8148 133.332 32.7833 133.544 32.7202C133.756 32.6571 133.954 32.5682 134.138 32.4535C134.327 32.3331 134.493 32.1897 134.637 32.0233C134.786 31.8513 134.906 31.662 134.998 31.4555L136.718 33.1848C136.501 33.4945 136.248 33.7726 135.961 34.0193C135.68 34.2659 135.374 34.4752 135.041 34.6473C134.714 34.8193 134.367 34.9484 134 35.0344C133.639 35.1262 133.266 35.1721 132.882 35.1721C132.233 35.1721 131.623 35.0516 131.049 34.8107C130.481 34.5698 129.982 34.2343 129.552 33.8042C129.128 33.374 128.792 32.8636 128.546 32.2728C128.299 31.6764 128.176 31.0225 128.176 30.3113C128.176 29.5829 128.299 28.9176 128.546 28.3154C128.792 27.7132 129.128 27.1999 129.552 26.7755C129.982 26.3511 130.481 26.0213 131.049 25.7861C131.623 25.551 132.233 25.4334 132.882 25.4334C133.266 25.4334 133.641 25.4793 134.009 25.5711C134.376 25.6628 134.723 25.7947 135.049 25.9668C135.382 26.1389 135.692 26.3511 135.979 26.6034C136.265 26.85 136.518 27.1282 136.736 27.4379L132.331 32.746ZM133.535 27.9025C133.426 27.8623 133.317 27.8365 133.208 27.8251C133.105 27.8136 132.996 27.8078 132.882 27.8078C132.56 27.8078 132.256 27.8681 131.97 27.9885C131.689 28.1032 131.442 28.2695 131.23 28.4875C131.023 28.7054 130.86 28.9693 130.739 29.279C130.619 29.5829 130.559 29.9271 130.559 30.3113C130.559 30.3974 130.562 30.4949 130.567 30.6038C130.579 30.7128 130.593 30.8247 130.61 30.9394C130.633 31.0483 130.659 31.1544 130.688 31.2577C130.716 31.3609 130.754 31.4527 130.8 31.533L133.535 27.9025ZM142.982 35H137.613V32.66H142.982C143.142 32.66 143.28 32.6026 143.394 32.4879C143.509 32.3732 143.567 32.2356 143.567 32.075C143.567 31.9086 143.509 31.7997 143.394 31.748C143.28 31.6964 143.142 31.6706 142.982 31.6706H140.538C140.131 31.6706 139.75 31.5932 139.394 31.4383C139.038 31.2835 138.729 31.0741 138.465 30.8103C138.201 30.5408 137.992 30.2282 137.837 29.8726C137.688 29.517 137.613 29.1356 137.613 28.7284C137.613 28.3212 137.688 27.9398 137.837 27.5842C137.992 27.2286 138.201 26.9189 138.465 26.655C138.729 26.3912 139.038 26.1847 139.394 26.0356C139.75 25.8808 140.131 25.8033 140.538 25.8033H145.296V28.1434H140.538C140.378 28.1434 140.24 28.2007 140.125 28.3154C140.011 28.4301 139.953 28.5678 139.953 28.7284C139.953 28.8947 140.011 29.0381 140.125 29.1585C140.24 29.2732 140.378 29.3306 140.538 29.3306H142.982C143.383 29.3306 143.762 29.3994 144.117 29.5371C144.473 29.669 144.782 29.8554 145.046 30.0963C145.31 30.3371 145.519 30.6268 145.674 30.9652C145.829 31.3036 145.907 31.6735 145.907 32.075C145.907 32.4822 145.829 32.8636 145.674 33.2192C145.519 33.569 145.31 33.8787 145.046 34.1483C144.782 34.4121 144.473 34.6215 144.117 34.7763C143.762 34.9254 143.383 35 142.982 35Z" fill="white"/>
<path d="M100.059 48.9197C100.059 49.4302 99.9616 49.9091 99.7666 50.3564C99.5716 50.8038 99.3049 51.1967 98.9665 51.5351C98.6339 51.8677 98.2439 52.1315 97.7965 52.3265C97.3491 52.5215 96.8702 52.619 96.3598 52.619H90.1914V40.2823H96.3598C96.8702 40.2823 97.3491 40.3798 97.7965 40.5748C98.2439 40.7698 98.6339 41.0365 98.9665 41.3749C99.3049 41.7075 99.5716 42.0975 99.7666 42.5449C99.9616 42.9922 100.059 43.4711 100.059 43.9816C100.059 44.211 100.028 44.4462 99.9645 44.687C99.9014 44.9279 99.8125 45.1602 99.6978 45.3839C99.5831 45.6076 99.4454 45.8112 99.2848 45.9947C99.1242 46.1782 98.9464 46.3302 98.7514 46.4507C98.9522 46.5596 99.1328 46.7088 99.2934 46.898C99.454 47.0816 99.5917 47.2852 99.7064 47.5088C99.8211 47.7325 99.9071 47.9677 99.9645 48.2143C100.028 48.4552 100.059 48.6903 100.059 48.9197ZM92.6605 50.15H96.3598C96.5319 50.15 96.6924 50.1184 96.8416 50.0553C96.9907 49.9923 97.1197 49.9062 97.2287 49.7972C97.3434 49.6825 97.4323 49.5506 97.4954 49.4015C97.5585 49.2524 97.59 49.0918 97.59 48.9197C97.59 48.7477 97.5585 48.5871 97.4954 48.438C97.4323 48.2888 97.3434 48.1598 97.2287 48.0508C97.1197 47.9361 96.9907 47.8472 96.8416 47.7841C96.6924 47.721 96.5319 47.6895 96.3598 47.6895H92.6605V50.15ZM92.6605 45.2204H96.3598C96.5319 45.2204 96.6924 45.1889 96.8416 45.1258C96.9907 45.0627 97.1197 44.9767 97.2287 44.8677C97.3434 44.753 97.4323 44.6211 97.4954 44.472C97.5585 44.3171 97.59 44.1536 97.59 43.9816C97.59 43.8095 97.5585 43.6489 97.4954 43.4998C97.4323 43.3507 97.3434 43.2217 97.2287 43.1127C97.1197 42.998 96.9907 42.9091 96.8416 42.846C96.6924 42.7829 96.5319 42.7514 96.3598 42.7514H92.6605V45.2204ZM110.581 47.9304C110.581 48.6186 110.457 49.261 110.211 49.8575C109.964 50.4482 109.629 50.9615 109.204 51.3974C108.78 51.8276 108.281 52.1688 107.707 52.4212C107.139 52.6678 106.529 52.7911 105.875 52.7911C105.227 52.7911 104.616 52.6678 104.042 52.4212C103.475 52.1688 102.976 51.8276 102.545 51.3974C102.121 50.9615 101.785 50.4482 101.539 49.8575C101.292 49.261 101.169 48.6186 101.169 47.9304C101.169 47.2307 101.292 46.5826 101.539 45.9861C101.785 45.3896 102.121 44.8763 102.545 44.4462C102.976 44.0103 103.475 43.669 104.042 43.4224C104.616 43.1758 105.227 43.0525 105.875 43.0525C106.529 43.0525 107.139 43.17 107.707 43.4052C108.281 43.6346 108.78 43.9644 109.204 44.3945C109.629 44.819 109.964 45.3323 110.211 45.9345C110.457 46.531 110.581 47.1963 110.581 47.9304ZM108.215 47.9304C108.215 47.5519 108.152 47.2106 108.026 46.9066C107.905 46.5969 107.739 46.3331 107.527 46.1151C107.314 45.8915 107.065 45.7223 106.778 45.6076C106.497 45.4871 106.196 45.4269 105.875 45.4269C105.554 45.4269 105.25 45.4871 104.963 45.6076C104.682 45.7223 104.435 45.8915 104.223 46.1151C104.017 46.3331 103.853 46.5969 103.733 46.9066C103.612 47.2106 103.552 47.5519 103.552 47.9304C103.552 48.286 103.612 48.6158 103.733 48.9197C103.853 49.2237 104.017 49.4875 104.223 49.7112C104.435 49.9349 104.682 50.1127 104.963 50.2446C105.25 50.3708 105.554 50.4339 105.875 50.4339C106.196 50.4339 106.497 50.3737 106.778 50.2532C107.065 50.1328 107.314 49.9636 107.527 49.7456C107.739 49.5277 107.905 49.2639 108.026 48.9541C108.152 48.6444 108.215 48.3032 108.215 47.9304ZM116.431 52.619C115.863 52.619 115.33 52.5129 114.831 52.3007C114.332 52.0828 113.893 51.7874 113.514 51.4146C113.141 51.0361 112.846 50.5973 112.628 50.0984C112.416 49.5994 112.31 49.066 112.31 48.4982V45.7624H111.166V43.4224H112.31V39.7403H114.65V43.4224H118.212V45.7624H114.65V48.4982C114.65 48.7448 114.696 48.9771 114.788 49.195C114.879 49.4072 115.005 49.5936 115.166 49.7542C115.327 49.9148 115.516 50.0439 115.734 50.1414C115.952 50.2331 116.184 50.279 116.431 50.279H118.212V52.619H116.431ZM124.595 52.619H119.227V50.279H124.595C124.756 50.279 124.893 50.2217 125.008 50.107C125.123 49.9923 125.18 49.8546 125.18 49.694C125.18 49.5277 125.123 49.4187 125.008 49.3671C124.893 49.3155 124.756 49.2897 124.595 49.2897H122.152C121.745 49.2897 121.363 49.2122 121.008 49.0574C120.652 48.9025 120.342 48.6932 120.078 48.4294C119.815 48.1598 119.605 47.8472 119.45 47.4916C119.301 47.136 119.227 46.7546 119.227 46.3474C119.227 45.9402 119.301 45.5588 119.45 45.2032C119.605 44.8476 119.815 44.5379 120.078 44.2741C120.342 44.0103 120.652 43.8038 121.008 43.6547C121.363 43.4998 121.745 43.4224 122.152 43.4224H126.909V45.7624H122.152C121.991 45.7624 121.853 45.8198 121.739 45.9345C121.624 46.0492 121.567 46.1868 121.567 46.3474C121.567 46.5138 121.624 46.6571 121.739 46.7776C121.853 46.8923 121.991 46.9496 122.152 46.9496H124.595C124.996 46.9496 125.375 47.0185 125.731 47.1561C126.086 47.288 126.396 47.4744 126.66 47.7153C126.924 47.9562 127.133 48.2458 127.288 48.5842C127.443 48.9226 127.52 49.2925 127.52 49.694C127.52 50.1012 127.443 50.4826 127.288 50.8382C127.133 51.1881 126.924 51.4978 126.66 51.7673C126.396 52.0312 126.086 52.2405 125.731 52.3954C125.375 52.5445 124.996 52.619 124.595 52.619Z" fill="white"/>
<path d="M81.0082 49.7365C81.0082 52.1186 80.5532 54.3535 79.6432 56.4412C78.7332 58.5289 77.4886 60.3623 75.9095 61.9414C74.3571 63.4938 72.5371 64.725 70.4494 65.635C68.3618 66.545 66.1269 67 63.7448 67H34.959V9.42839H63.7448C66.1269 9.42839 68.3618 9.88339 70.4494 10.7934C72.5371 11.7034 74.3571 12.948 75.9095 14.5271C77.4886 16.0795 78.7332 17.8995 79.6432 19.9872C80.5532 22.0749 81.0082 24.3098 81.0082 26.6918C81.0082 27.7624 80.861 28.8598 80.5666 29.9839C80.2722 31.1081 79.8573 32.1921 79.322 33.2359C78.7867 34.2797 78.1444 35.2299 77.395 36.0864C76.6455 36.9429 75.8158 37.6521 74.9058 38.2142C75.8426 38.7227 76.6857 39.4186 77.4351 40.3019C78.1845 41.1583 78.8269 42.1085 79.3622 43.1523C79.8975 44.1962 80.299 45.2935 80.5666 46.4444C80.861 47.5686 81.0082 48.6659 81.0082 49.7365ZM46.4813 55.4776H63.7448C64.5477 55.4776 65.2972 55.3304 65.9931 55.036C66.6889 54.7416 67.2912 54.3401 67.7997 53.8316C68.335 53.2963 68.7499 52.6807 69.0443 51.9848C69.3387 51.2889 69.4859 50.5395 69.4859 49.7365C69.4859 48.9336 69.3387 48.1842 69.0443 47.4883C68.7499 46.7924 68.335 46.1902 67.7997 45.6816C67.2912 45.1463 66.6889 44.7315 65.9931 44.4371C65.2972 44.1427 64.5477 43.9954 63.7448 43.9954H46.4813V55.4776ZM46.4813 32.4731H63.7448C64.5477 32.4731 65.2972 32.3259 65.9931 32.0315C66.6889 31.7371 67.2912 31.3356 67.7997 30.827C68.335 30.2917 68.7499 29.6761 69.0443 28.9803C69.3387 28.2576 69.4859 27.4948 69.4859 26.6918C69.4859 25.8889 69.3387 25.1395 69.0443 24.4436C68.7499 23.7477 68.335 23.1455 67.7997 22.6369C67.2912 22.1016 66.6889 21.6868 65.9931 21.3924C65.2972 21.0979 64.5477 20.9507 63.7448 20.9507H46.4813V32.4731Z" fill="white"/>
</svg>
