<svg width="342" height="114" viewBox="0 0 342 114" fill="none" xmlns="http://www.w3.org/2000/svg">
<rect x="3" y="3" width="336" height="108" rx="13" fill="white" stroke="#F7515C" stroke-width="6"/>
<path d="M67.3014 88H55.4676V28.8724H67.3014V52.5399H90.9277V28.8724H102.761V88H90.9277V64.3737H67.3014V88Z" fill="#F7515C"/>
<path d="M156.205 65.6487H152.735V48.3105H156.205V55.2506H163.133V48.3105H166.603V65.6487H163.133V58.7206H156.205V65.6487ZM174.438 62.4809C174.567 62.5212 174.696 62.5494 174.824 62.5655C174.953 62.5736 175.082 62.5776 175.211 62.5776C175.534 62.5776 175.844 62.5333 176.142 62.4446C176.441 62.3559 176.719 62.231 176.977 62.0698C177.243 61.9005 177.476 61.699 177.678 61.4652C177.887 61.2234 178.057 60.9574 178.186 60.6673L180.604 63.0975C180.298 63.5328 179.943 63.9237 179.54 64.2703C179.145 64.6169 178.714 64.9111 178.246 65.1529C177.787 65.3947 177.299 65.5761 176.783 65.697C176.275 65.826 175.751 65.8905 175.211 65.8905C174.301 65.8905 173.442 65.7212 172.636 65.3827C171.838 65.0441 171.137 64.5726 170.532 63.968C169.936 63.3635 169.464 62.6461 169.118 61.8159C168.771 60.9776 168.598 60.0587 168.598 59.0592C168.598 58.0355 168.771 57.1005 169.118 56.2541C169.464 55.4078 169.936 54.6863 170.532 54.0899C171.137 53.4934 171.838 53.0299 172.636 52.6994C173.442 52.369 174.301 52.2037 175.211 52.2037C175.751 52.2037 176.279 52.2682 176.795 52.3972C177.311 52.5261 177.799 52.7115 178.258 52.9533C178.726 53.1952 179.161 53.4934 179.564 53.8481C179.967 54.1947 180.322 54.5856 180.628 55.0209L174.438 62.4809ZM176.13 55.6738C175.977 55.6173 175.824 55.5811 175.671 55.5649C175.526 55.5488 175.373 55.5408 175.211 55.5408C174.76 55.5408 174.333 55.6254 173.93 55.7947C173.535 55.9559 173.188 56.1896 172.89 56.4959C172.6 56.8022 172.37 57.173 172.201 57.6083C172.032 58.0355 171.947 58.5191 171.947 59.0592C171.947 59.1801 171.951 59.3171 171.959 59.4703C171.975 59.6234 171.995 59.7806 172.019 59.9418C172.052 60.095 172.088 60.2441 172.128 60.3892C172.169 60.5343 172.221 60.6632 172.285 60.7761L176.13 55.6738ZM185.597 65.6487H182.297V52.6994H183.095L184.183 54.235C184.715 53.7513 185.319 53.3805 185.996 53.1226C186.673 52.8566 187.375 52.7236 188.1 52.7236H191.014V56.0123H188.1C187.754 56.0123 187.427 56.0768 187.121 56.2058C186.815 56.3347 186.549 56.5121 186.323 56.7378C186.097 56.9634 185.92 57.2294 185.791 57.5357C185.662 57.842 185.597 58.1685 185.597 58.5151V65.6487ZM204.822 59.0592C204.822 60.0264 204.648 60.9292 204.302 61.7675C203.955 62.5977 203.484 63.3192 202.887 63.9318C202.291 64.5363 201.589 65.0159 200.783 65.3706C199.985 65.7172 199.127 65.8905 198.208 65.8905C197.297 65.8905 196.439 65.7172 195.633 65.3706C194.835 65.0159 194.133 64.5363 193.529 63.9318C192.932 63.3192 192.461 62.5977 192.114 61.7675C191.768 60.9292 191.594 60.0264 191.594 59.0592C191.594 58.0758 191.768 57.165 192.114 56.3267C192.461 55.4884 192.932 54.767 193.529 54.1624C194.133 53.5498 194.835 53.0702 195.633 52.7236C196.439 52.377 197.297 52.2037 198.208 52.2037C199.127 52.2037 199.985 52.369 200.783 52.6994C201.589 53.0219 202.291 53.4853 202.887 54.0899C203.484 54.6863 203.955 55.4078 204.302 56.2541C204.648 57.0924 204.822 58.0274 204.822 59.0592ZM201.497 59.0592C201.497 58.5272 201.408 58.0476 201.231 57.6204C201.061 57.1851 200.828 56.8143 200.529 56.508C200.231 56.1937 199.881 55.9559 199.478 55.7947C199.083 55.6254 198.659 55.5408 198.208 55.5408C197.757 55.5408 197.329 55.6254 196.926 55.7947C196.531 55.9559 196.185 56.1937 195.887 56.508C195.596 56.8143 195.367 57.1851 195.197 57.6204C195.028 58.0476 194.944 58.5272 194.944 59.0592C194.944 59.5589 195.028 60.0224 195.197 60.4496C195.367 60.8768 195.596 61.2476 195.887 61.562C196.185 61.8763 196.531 62.1262 196.926 62.3116C197.329 62.4889 197.757 62.5776 198.208 62.5776C198.659 62.5776 199.083 62.493 199.478 62.3237C199.881 62.1544 200.231 61.9166 200.529 61.6103C200.828 61.304 201.061 60.9332 201.231 60.498C201.408 60.0627 201.497 59.5831 201.497 59.0592ZM211.798 62.4809C211.927 62.5212 212.056 62.5494 212.185 62.5655C212.314 62.5736 212.443 62.5776 212.572 62.5776C212.894 62.5776 213.205 62.5333 213.503 62.4446C213.801 62.3559 214.079 62.231 214.337 62.0698C214.603 61.9005 214.837 61.699 215.038 61.4652C215.248 61.2234 215.417 60.9574 215.546 60.6673L217.964 63.0975C217.658 63.5328 217.303 63.9237 216.9 64.2703C216.505 64.6169 216.074 64.9111 215.607 65.1529C215.147 65.3947 214.66 65.5761 214.144 65.697C213.636 65.826 213.112 65.8905 212.572 65.8905C211.661 65.8905 210.803 65.7212 209.997 65.3827C209.199 65.0441 208.497 64.5726 207.893 63.968C207.296 63.3635 206.825 62.6461 206.478 61.8159C206.132 60.9776 205.958 60.0587 205.958 59.0592C205.958 58.0355 206.132 57.1005 206.478 56.2541C206.825 55.4078 207.296 54.6863 207.893 54.0899C208.497 53.4934 209.199 53.0299 209.997 52.6994C210.803 52.369 211.661 52.2037 212.572 52.2037C213.112 52.2037 213.64 52.2682 214.156 52.3972C214.672 52.5261 215.159 52.7115 215.619 52.9533C216.086 53.1952 216.522 53.4934 216.925 53.8481C217.328 54.1947 217.682 54.5856 217.989 55.0209L211.798 62.4809ZM213.491 55.6738C213.338 55.6173 213.184 55.5811 213.031 55.5649C212.886 55.5488 212.733 55.5408 212.572 55.5408C212.12 55.5408 211.693 55.6254 211.29 55.7947C210.895 55.9559 210.549 56.1896 210.25 56.4959C209.96 56.8022 209.731 57.173 209.561 57.6083C209.392 58.0355 209.307 58.5191 209.307 59.0592C209.307 59.1801 209.311 59.3171 209.319 59.4703C209.336 59.6234 209.356 59.7806 209.38 59.9418C209.412 60.095 209.448 60.2441 209.489 60.3892C209.529 60.5343 209.581 60.6632 209.646 60.7761L213.491 55.6738ZM226.766 65.6487H219.222V62.36H226.766C226.992 62.36 227.186 62.2794 227.347 62.1181C227.508 61.9569 227.589 61.7635 227.589 61.5378C227.589 61.304 227.508 61.1509 227.347 61.0783C227.186 61.0058 226.992 60.9695 226.766 60.9695H223.333C222.76 60.9695 222.224 60.8607 221.725 60.6431C221.225 60.4254 220.79 60.1312 220.419 59.7604C220.048 59.3816 219.754 58.9423 219.536 58.4426C219.327 57.9428 219.222 57.4068 219.222 56.8345C219.222 56.2622 219.327 55.7262 219.536 55.2264C219.754 54.7267 220.048 54.2914 220.419 53.9206C220.79 53.5498 221.225 53.2596 221.725 53.0501C222.224 52.8324 222.76 52.7236 223.333 52.7236H230.019V56.0123H223.333C223.107 56.0123 222.914 56.0929 222.752 56.2541C222.591 56.4153 222.51 56.6088 222.51 56.8345C222.51 57.0682 222.591 57.2697 222.752 57.439C222.914 57.6002 223.107 57.6808 223.333 57.6808H226.766C227.331 57.6808 227.863 57.7776 228.362 57.971C228.862 58.1564 229.297 58.4184 229.668 58.7569C230.039 59.0955 230.333 59.5025 230.551 59.9781C230.768 60.4536 230.877 60.9736 230.877 61.5378C230.877 62.1101 230.768 62.6461 230.551 63.1459C230.333 63.6376 230.039 64.0728 229.668 64.4517C229.297 64.8224 228.862 65.1167 228.362 65.3343C227.863 65.5439 227.331 65.6487 226.766 65.6487ZM252.544 59.0592C252.544 60.0748 252.371 61.0018 252.024 61.8401C251.677 62.6784 251.206 63.3998 250.609 64.0043C250.013 64.6008 249.312 65.0643 248.506 65.3947C247.708 65.7252 246.849 65.8905 245.93 65.8905C245.019 65.8905 244.161 65.7212 243.355 65.3827C242.557 65.0441 241.856 64.5726 241.251 63.968C240.655 63.3635 240.183 62.6461 239.837 61.8159C239.49 60.9776 239.317 60.0587 239.317 59.0592V47.5488H242.63V53.5942C242.807 53.3685 243.02 53.1669 243.27 52.9896C243.528 52.8123 243.802 52.6672 244.093 52.5543C244.391 52.4415 244.697 52.3569 245.011 52.3004C245.326 52.236 245.632 52.2037 245.93 52.2037C246.849 52.2037 247.708 52.377 248.506 52.7236C249.312 53.0622 250.013 53.5377 250.609 54.1503C251.206 54.7629 251.677 55.4884 252.024 56.3267C252.371 57.1569 252.544 58.0677 252.544 59.0592ZM249.219 59.0592C249.219 58.5594 249.13 58.0959 248.953 57.6687C248.784 57.2335 248.55 56.8587 248.252 56.5443C247.954 56.2299 247.603 55.9841 247.2 55.8068C246.805 55.6294 246.382 55.5408 245.93 55.5408C245.479 55.5408 245.052 55.6415 244.649 55.843C244.254 56.0365 243.907 56.2985 243.609 56.6289C243.311 56.9514 243.077 57.3262 242.908 57.7534C242.738 58.1725 242.654 58.6078 242.654 59.0592C242.654 59.5589 242.738 60.0224 242.908 60.4496C243.077 60.8768 243.311 61.2476 243.609 61.562C243.907 61.8763 244.254 62.1262 244.649 62.3116C245.052 62.4889 245.479 62.5776 245.93 62.5776C246.382 62.5776 246.805 62.4889 247.2 62.3116C247.603 62.1262 247.954 61.8763 248.252 61.562C248.55 61.2476 248.784 60.8768 248.953 60.4496C249.13 60.0224 249.219 59.5589 249.219 59.0592ZM266.896 59.0592C266.896 60.0264 266.722 60.9292 266.376 61.7675C266.029 62.5977 265.558 63.3192 264.961 63.9318C264.365 64.5363 263.663 65.0159 262.857 65.3706C262.059 65.7172 261.201 65.8905 260.282 65.8905C259.371 65.8905 258.513 65.7172 257.707 65.3706C256.909 65.0159 256.207 64.5363 255.603 63.9318C255.006 63.3192 254.535 62.5977 254.188 61.7675C253.842 60.9292 253.668 60.0264 253.668 59.0592C253.668 58.0758 253.842 57.165 254.188 56.3267C254.535 55.4884 255.006 54.767 255.603 54.1624C256.207 53.5498 256.909 53.0702 257.707 52.7236C258.513 52.377 259.371 52.2037 260.282 52.2037C261.201 52.2037 262.059 52.369 262.857 52.6994C263.663 53.0219 264.365 53.4853 264.961 54.0899C265.558 54.6863 266.029 55.4078 266.376 56.2541C266.722 57.0924 266.896 58.0274 266.896 59.0592ZM263.571 59.0592C263.571 58.5272 263.482 58.0476 263.305 57.6204C263.135 57.1851 262.902 56.8143 262.604 56.508C262.305 56.1937 261.955 55.9559 261.552 55.7947C261.157 55.6254 260.733 55.5408 260.282 55.5408C259.831 55.5408 259.403 55.6254 259 55.7947C258.605 55.9559 258.259 56.1937 257.961 56.508C257.67 56.8143 257.441 57.1851 257.271 57.6204C257.102 58.0476 257.018 58.5272 257.018 59.0592C257.018 59.5589 257.102 60.0224 257.271 60.4496C257.441 60.8768 257.67 61.2476 257.961 61.562C258.259 61.8763 258.605 62.1262 259 62.3116C259.403 62.4889 259.831 62.5776 260.282 62.5776C260.733 62.5776 261.157 62.493 261.552 62.3237C261.955 62.1544 262.305 61.9166 262.604 61.6103C262.902 61.304 263.135 60.9332 263.305 60.498C263.482 60.0627 263.571 59.5831 263.571 59.0592ZM275.117 65.6487C274.319 65.6487 273.57 65.4995 272.869 65.2013C272.167 64.895 271.551 64.4799 271.019 63.9559C270.495 63.4239 270.08 62.8073 269.773 62.1061C269.475 61.4048 269.326 60.6552 269.326 59.8572V56.0123H267.718V52.7236H269.326V47.5488H272.615V52.7236H277.62V56.0123H272.615V59.8572C272.615 60.2038 272.679 60.5302 272.808 60.8365C272.937 61.1348 273.114 61.3967 273.34 61.6224C273.566 61.8481 273.832 62.0295 274.138 62.1665C274.444 62.2955 274.771 62.36 275.117 62.36H277.62V65.6487H275.117Z" fill="#F7515C"/>
<path d="M138.198 70.27C138.198 72.7164 137.73 75.0117 136.796 77.1558C135.861 79.2999 134.583 81.1829 132.961 82.8047C131.367 84.399 129.498 85.6635 127.353 86.5981C125.209 87.5327 122.914 88 120.468 88H90.9038V28.8724H120.468C122.914 28.8724 125.209 29.3397 127.353 30.2743C129.498 31.2089 131.367 32.4871 132.961 34.1089C134.583 35.7033 135.861 37.5725 136.796 39.7166C137.73 41.8607 138.198 44.156 138.198 46.6024C138.198 47.702 138.046 48.829 137.744 49.9835C137.442 51.138 137.016 52.2513 136.466 53.3234C135.916 54.3954 135.256 55.3712 134.487 56.2509C133.717 57.1305 132.865 57.8589 131.93 58.4362C132.892 58.9585 133.758 59.6732 134.528 60.5803C135.298 61.4599 135.957 62.4358 136.507 63.5078C137.057 64.5799 137.469 65.7069 137.744 66.8889C138.046 68.0434 138.198 69.1704 138.198 70.27ZM102.738 76.1662H120.468C121.292 76.1662 122.062 76.015 122.777 75.7127C123.491 75.4103 124.11 74.998 124.632 74.4757C125.182 73.9259 125.608 73.2937 125.91 72.579C126.213 71.8643 126.364 71.0946 126.364 70.27C126.364 69.4453 126.213 68.6756 125.91 67.9609C125.608 67.2462 125.182 66.6277 124.632 66.1055C124.11 65.5557 123.491 65.1296 122.777 64.8273C122.062 64.5249 121.292 64.3737 120.468 64.3737H102.738V76.1662ZM102.738 52.5399H120.468C121.292 52.5399 122.062 52.3887 122.777 52.0864C123.491 51.784 124.11 51.3717 124.632 50.8494C125.182 50.2996 125.608 49.6674 125.91 48.9527C126.213 48.2105 126.364 47.4271 126.364 46.6024C126.364 45.7778 126.213 45.0081 125.91 44.2934C125.608 43.5787 125.182 42.9602 124.632 42.4379C124.11 41.8882 123.491 41.4621 122.777 41.1597C122.062 40.8574 121.292 40.7062 120.468 40.7062H102.738V52.5399Z" fill="#F7515C"/>
</svg>
