<svg width="347" height="295" viewBox="0 0 347 295" fill="none" xmlns="http://www.w3.org/2000/svg">
<circle cx="173.5" cy="147.5" r="106.5" stroke="#8D8D8D" stroke-width="4"/>
<path d="M218 180.509C218 203.572 212.906 224.353 204.77 239.297C196.593 254.317 185.626 263 174 263C162.374 263 151.407 254.317 143.23 239.297C135.094 224.353 130 203.572 130 180.509C130 157.396 135.111 144.989 142.791 138.26C150.519 131.489 161.342 130 174 130C186.658 130 197.481 131.489 205.209 138.26C212.889 144.989 218 157.396 218 180.509Z" fill="white" stroke="#8D8D8D" stroke-width="4"/>
<path d="M227 213L227 143C227 135.82 232.82 130 240 130C247.18 130 253 135.82 253 143L253 213C253 220.18 247.18 226 240 226C232.82 226 227 220.18 227 213Z" fill="white" stroke="#8D8D8D" stroke-width="4"/>
<path d="M95 213L95 143C95 135.82 100.82 130 108 130C115.18 130 121 135.82 121 143L121 213C121 220.18 115.18 226 108 226C100.82 226 95 220.18 95 213Z" fill="white" stroke="#8D8D8D" stroke-width="4"/>
<path d="M238 79.5C238 88.4094 236.196 95.4236 233.037 100.956C229.883 106.48 225.308 110.648 219.568 113.765C208 120.046 191.808 122 173.5 122C155.192 122 139 120.046 127.432 113.765C121.692 110.648 117.117 106.48 113.963 100.956C110.804 95.4236 109 88.4094 109 79.5C109 43.8776 137.878 15 173.5 15C209.122 15 238 43.8776 238 79.5Z" fill="white" stroke="#8D8D8D" stroke-width="4"/>
<path d="M148.296 39.9C159.876 38.7 170.676 38.1 180.696 38.1C186.576 38.1 190.896 39.48 193.656 42.24C196.416 45 197.796 49.32 197.796 55.2V59.25C197.796 63.75 196.896 67.17 195.096 69.51C193.296 71.91 190.146 73.89 185.646 75.45L176.646 78.6V83.1H160.446V70.5L181.596 62.85V55.2C181.596 53.82 181.176 52.74 180.336 51.96C179.556 51.12 178.176 50.7 176.196 50.7C172.596 50.7 167.916 50.88 162.156 51.24C156.456 51.6 151.836 51.87 148.296 52.05V39.9ZM160.446 88.5H176.646V102H160.446V88.5Z" fill="black"/>
</svg>
