<svg width="347" height="295" viewBox="0 0 347 295" fill="none" xmlns="http://www.w3.org/2000/svg">
<circle cx="172.5" cy="147.5" r="107" stroke="black" stroke-width="5"/>
<path d="M86 184.5C78.8 175.3 60 184.5 49.5 186.5L58.5 163.5L107 139.5H163.5L142 193.5L144 216L122.5 233C122.667 223 121.1 203.1 113.5 203.5C105.9 203.9 95.1667 214.333 91 220.5C92.1667 211.667 93.2 193.7 86 184.5Z" fill="#2E2B2B"/>
<path d="M259.5 185C266.7 175.8 285.5 185 296 187L287 164L238.5 140H182L203.5 194L201.5 216.5L223 233.5C222.833 223.5 224.4 203.6 232 204C239.6 204.4 250.333 214.833 254.5 221C253.333 212.167 252.3 194.2 259.5 185Z" fill="#2E2B2B"/>
<path d="M239 86.5C239 123.227 209.227 131 172.5 131C135.773 131 106 123.227 106 86.5C106 49.7731 135.773 20 172.5 20C209.227 20 239 49.7731 239 86.5Z" fill="black"/>
<path d="M219 187.509C219 234.172 198.405 272 173 272C147.595 272 127 234.172 127 187.509C127 140.845 147.595 135 173 135C198.405 135 219 140.845 219 187.509Z" fill="#656465"/>
<path d="M25.8515 164.736C24.2766 156.603 29.5933 148.733 37.7265 147.158L106.45 133.851C114.583 132.277 122.453 137.593 124.028 145.726V145.726C125.603 153.86 120.286 161.73 112.153 163.304L43.4294 176.611C35.2962 178.186 27.4263 172.869 25.8515 164.736V164.736Z" fill="#656465"/>
<path d="M59.3257 142.976L65.0286 172.429L43.4298 176.611C35.2966 178.186 27.4267 172.869 25.8518 164.736V164.736C24.277 156.603 29.5936 148.733 37.7269 147.158L59.3257 142.976Z" fill="black"/>
<path d="M322.028 164.736C323.603 156.603 318.287 148.733 310.153 147.158L241.43 133.851C233.297 132.277 225.427 137.593 223.852 145.726V145.726C222.277 153.86 227.594 161.73 235.727 163.304L304.45 176.611C312.584 178.186 320.454 172.869 322.028 164.736V164.736Z" fill="#656465"/>
<path d="M288.554 142.976L282.851 172.429L304.45 176.611C312.583 178.186 320.453 172.869 322.028 164.736V164.736C323.603 156.603 318.286 148.733 310.153 147.158L288.554 142.976Z" fill="black"/>
<path d="M227 113.5C227 123.165 205.5 131 172.5 131C138.5 131 118 123.165 118 113.5C118 103.835 142.4 96 172.5 96C202.6 96 227 103.835 227 113.5Z" fill="#FEF391"/>
<path d="M113.081 16.5934C113.174 14.4777 116.061 13.9387 116.911 15.8784L138 64H111L113.081 16.5934Z" fill="black"/>
<path d="M230.919 16.5934C230.826 14.4777 227.939 13.9387 227.089 15.8784L206 64H233L230.919 16.5934Z" fill="black"/>
<path d="M128.5 209L217.5 209.5L216.367 216H129.624L128.5 209Z" fill="#FFD336"/>
<ellipse cx="174" cy="169" rx="30" ry="16" fill="#FFD336"/>
<path d="M185.87 173.778C185.936 171.92 186.674 170.199 187.948 168.932C188.646 168.23 189.487 167.684 190.424 167.326C191.36 166.968 192.373 166.806 193.403 166.849L197.013 166.987C193.972 163.212 189.895 160.397 185.355 158.934L185.273 158.907L185.289 159.316C185.364 161.392 184.613 163.35 183.201 164.762C181.79 166.174 179.831 166.925 177.755 166.85C177.676 166.848 177.597 166.829 177.522 166.797C177.448 166.764 177.379 166.717 177.321 166.659C177.263 166.6 177.216 166.532 177.183 166.458C177.15 166.383 177.132 166.304 177.13 166.225L176.989 162.527L176.98 162.535C176.114 163.095 175.08 163.371 174.011 163.33C172.941 163.289 171.883 162.932 170.971 162.304L170.961 162.294L171.105 165.99C171.109 166.069 171.097 166.148 171.069 166.22C171.042 166.292 171 166.357 170.946 166.411C170.892 166.465 170.827 166.507 170.755 166.534C170.683 166.562 170.605 166.574 170.525 166.57C168.449 166.484 166.428 165.581 164.904 164.057C163.38 162.533 162.476 160.512 162.391 158.436L162.378 158.026L162.299 158.05C157.858 159.166 153.986 161.675 151.223 165.223L154.834 165.362C155.864 165.399 156.892 165.64 157.858 166.071C158.824 166.501 159.71 167.114 160.464 167.872C161.839 169.242 162.711 171.024 162.921 172.892C165.188 172.976 167.432 173.733 169.365 175.067C171.297 176.401 172.832 178.251 173.773 180.383L174.752 182.602L175.565 180.461C176.344 178.395 177.74 176.656 179.575 175.466C181.411 174.276 183.602 173.688 185.87 173.778V173.778Z" fill="black"/>
<path d="M130 216H216L194.476 239.72C192.581 241.809 189.891 243 187.071 243H159.369C156.584 243 153.924 241.838 152.032 239.794L130 216Z" fill="black"/>
<path d="M155.988 78.268C153.14 85.7248 144.153 89.2192 135.916 86.073C127.678 82.9268 123.309 74.3315 126.156 66.8748C129.004 59.418 132.636 63.8346 140.874 66.9808C149.112 70.127 157.109 73.4987 155.988 78.268Z" fill="white"/>
<path d="M157.389 78.8032L157.425 78.7092L157.448 78.6113C157.844 76.9284 157.404 75.3935 156.489 74.0781C155.605 72.8071 154.264 71.7129 152.744 70.7491C149.707 68.8225 145.505 67.1436 141.409 65.5795C139.555 64.8712 137.941 64.0962 136.47 63.3903C136.362 63.3384 136.255 63.2869 136.148 63.2358C134.641 62.513 133.179 61.8221 131.853 61.4953C130.468 61.1539 129.007 61.1532 127.662 62.0587C126.404 62.9049 125.503 64.3812 124.755 66.3396C121.563 74.6983 126.503 84.0839 135.38 87.4743C144.257 90.8646 154.197 87.1619 157.389 78.8032Z" stroke="black" stroke-opacity="0.7" stroke-width="3"/>
<path d="M185.012 78.6613C187.86 86.118 196.847 89.6124 205.084 86.4663C213.322 83.3201 217.691 74.7248 214.844 67.268C211.996 59.8113 208.364 64.2279 200.126 67.3741C191.888 70.5203 183.891 73.892 185.012 78.6613Z" fill="white"/>
<path d="M183.611 79.1965L183.575 79.1025L183.552 79.0046C183.156 77.3217 183.596 75.7868 184.511 74.4714C185.395 73.2004 186.736 72.1062 188.256 71.1423C191.293 69.2158 195.495 67.5369 199.591 65.9728C201.445 65.2645 203.059 64.4895 204.53 63.7836C204.638 63.7317 204.745 63.6801 204.852 63.629C206.359 62.9062 207.821 62.2154 209.147 61.8886C210.532 61.5472 211.993 61.5465 213.338 62.452C214.596 63.2981 215.497 64.7744 216.245 66.7329C219.437 75.0915 214.497 84.4772 205.62 87.8675C196.743 91.2579 186.803 87.5552 183.611 79.1965Z" stroke="black" stroke-opacity="0.7" stroke-width="3"/>
</svg>
