<svg width="347" height="295" viewBox="0 0 347 295" fill="none" xmlns="http://www.w3.org/2000/svg">
<circle cx="173.5" cy="149.5" r="107" stroke="#1A93D0" stroke-width="5"/>
<path d="M239 86.5C239 123.227 209.227 131 172.5 131C135.773 131 106 123.227 106 86.5C106 49.7731 135.773 20 172.5 20C209.227 20 239 49.7731 239 86.5Z" fill="#1A93D0"/>
<path d="M219 187.509C219 234.172 198.405 272 173 272C147.595 272 127 234.172 127 187.509C127 140.845 147.595 135 173 135C198.405 135 219 140.845 219 187.509Z" fill="#1A93D0"/>
<path d="M107 235C98.7157 235 92 228.284 92 220L92 150C92 141.716 98.7157 135 107 135V135C115.284 135 122 141.716 122 150L122 220C122 228.284 115.284 235 107 235V235Z" fill="#1A93D0"/>
<path d="M249.624 230.113C241.418 231.253 233.842 225.526 232.702 217.321L223.065 147.987C221.924 139.782 227.652 132.205 235.857 131.065V131.065C244.063 129.925 251.639 135.652 252.779 143.857L262.416 213.191C263.556 221.396 257.829 228.972 249.624 230.113V230.113Z" fill="#1A93D0"/>
<rect x="227.883" y="182.654" width="30" height="19" transform="rotate(-7.91283 227.883 182.654)" fill="white"/>
<path d="M230.499 201.473L260.213 197.343L262.416 213.191C263.557 221.396 257.829 228.972 249.624 230.113V230.113C241.418 231.253 233.842 225.526 232.702 217.321L230.499 201.473Z" fill="#F7515C"/>
<path d="M166.748 58.64C166.401 59.5467 165.801 60 164.948 60H157.388C157.148 60 156.934 59.92 156.748 59.76C156.588 59.5733 156.508 59.36 156.508 59.12L156.548 58.88L165.268 33.32C165.374 32.9733 165.574 32.6667 165.868 32.4C166.161 32.1333 166.561 32 167.068 32H178.188C178.694 32 179.094 32.1333 179.388 32.4C179.681 32.6667 179.881 32.9733 179.988 33.32L188.708 58.88L188.748 59.12C188.748 59.36 188.654 59.5733 188.468 59.76C188.308 59.92 188.108 60 187.868 60H180.308C179.454 60 178.854 59.5467 178.508 58.64L177.508 55.84H167.748L166.748 58.64ZM172.628 39.72L169.788 48.04H175.468L172.628 39.72Z" fill="white"/>
<path d="M154.587 85.564C151.336 90.3655 144.066 91.1197 138.35 87.2487C132.634 83.3776 130.636 76.347 133.888 71.5455C137.139 66.744 143.021 68.1836 148.737 72.0547C154.454 75.9258 157.839 80.7624 154.587 85.564Z" fill="white"/>
<path d="M191.433 84.564C194.684 89.3655 201.954 90.1197 207.67 86.2487C213.386 82.3776 215.384 75.347 212.132 70.5455C208.881 65.744 202.999 67.1836 197.283 71.0547C191.567 74.9258 188.181 79.7624 191.433 84.564Z" fill="white"/>
<ellipse cx="149.5" cy="79" rx="4.5" ry="4" fill="#1A93D0"/>
<ellipse rx="4.5" ry="4" transform="matrix(-1 0 0 1 196.521 78)" fill="#1A93D0"/>
<path d="M227 113.5C227 123.165 205.5 131 172.5 131C138.5 131 118 123.165 118 113.5C118 103.835 142.4 96 172.5 96C202.6 96 227 103.835 227 113.5Z" fill="#FEF391"/>
<rect x="92" y="185" width="30" height="19" fill="white"/>
<path d="M92 204H122V220C122 228.284 115.284 235 107 235V235C98.7157 235 92 228.284 92 220V204Z" fill="#F7515C"/>
<path d="M185.127 164.155L177.033 162.969L173.415 155.572C173.316 155.37 173.154 155.206 172.953 155.106C172.449 154.855 171.837 155.064 171.585 155.572L167.967 162.969L159.873 164.155C159.65 164.187 159.446 164.294 159.289 164.454C159.101 164.65 158.997 164.913 159 165.186C159.004 165.459 159.115 165.72 159.309 165.911L165.165 171.668L163.781 179.798C163.749 179.987 163.769 180.181 163.841 180.359C163.913 180.537 164.032 180.691 164.186 180.804C164.34 180.917 164.522 180.984 164.712 180.997C164.902 181.011 165.092 180.971 165.26 180.881L172.5 177.043L179.74 180.881C179.937 180.987 180.167 181.023 180.387 180.984C180.942 180.888 181.315 180.357 181.219 179.798L179.835 171.668L185.692 165.911C185.851 165.753 185.956 165.547 185.988 165.322C186.074 164.76 185.685 164.239 185.127 164.155V164.155Z" fill="white"/>
<path d="M127 191H219L217.5 209.5L214 226H131.5L128 208L127 191Z" fill="#F7515C"/>
<rect x="141" y="191" width="10" height="35" fill="white"/>
<rect x="197" y="191" width="10" height="35" fill="white"/>
<rect x="169" y="191" width="10" height="35" fill="white"/>
<ellipse rx="38.2078" ry="20.7123" transform="matrix(-0.121698 -0.992567 0.721517 -0.692397 254.594 199.265)" fill="#F7515C"/>
<ellipse rx="32.9012" ry="17.8356" transform="matrix(-0.121698 -0.992567 0.721517 -0.692397 254.594 199.265)" fill="white"/>
<ellipse rx="24.4106" ry="13.2328" transform="matrix(-0.121698 -0.992567 0.721517 -0.692397 254.594 199.265)" fill="#F7515C"/>
<ellipse rx="18.0426" ry="9.7808" transform="matrix(-0.121698 -0.992567 0.721517 -0.692397 254.594 199.265)" fill="#1A93D0"/>
<path d="M253.893 186.638L252.611 193.876L249.62 195.59C249.538 195.637 249.463 195.751 249.407 195.916C249.265 196.327 249.273 196.94 249.425 197.286L251.642 202.28L251.195 210.044C251.182 210.258 251.198 210.471 251.238 210.651C251.287 210.87 251.368 211.025 251.465 211.082C251.561 211.139 251.665 211.094 251.753 210.956L254.405 206.805L257.119 209.889C257.182 209.961 257.253 209.985 257.323 209.958C257.393 209.931 257.46 209.855 257.516 209.737C257.572 209.619 257.615 209.465 257.641 209.292C257.666 209.119 257.672 208.934 257.658 208.759L257.08 201.198L259.205 195.338C259.263 195.179 259.3 194.974 259.31 194.761C259.336 194.226 259.189 193.763 258.982 193.727L255.972 193.208L254.571 186.504C254.532 186.321 254.471 186.178 254.395 186.098C254.207 185.894 253.982 186.139 253.893 186.638V186.638Z" fill="white"/>
<mask id="path-26-inside-1_6_230" fill="white">
<path fill-rule="evenodd" clip-rule="evenodd" d="M101.578 34.6903C104.065 31.5046 107.988 30.4664 114.783 35.689C122.018 41.2504 124.842 53.6558 123.776 54.9451C122.555 56.4208 119.857 54.4328 118.105 53.1423C117.749 52.88 117.432 52.6465 117.175 52.4767C116.117 51.7793 115.668 50.506 115.835 49.1528C115.892 48.6903 115.486 48.4297 115.065 48.6533C113.442 49.5157 111.623 49.5387 110.325 48.5411C109.177 47.6589 108.696 46.1779 108.887 44.6087C108.944 44.1386 108.523 43.8803 108.099 44.1216C105.915 45.365 103.425 45.4409 101.665 44.088C99.1119 42.1258 99.0677 37.9057 101.578 34.6903Z"/>
</mask>
<path fill-rule="evenodd" clip-rule="evenodd" d="M101.578 34.6903C104.065 31.5046 107.988 30.4664 114.783 35.689C122.018 41.2504 124.842 53.6558 123.776 54.9451C122.555 56.4208 119.857 54.4328 118.105 53.1423C117.749 52.88 117.432 52.6465 117.175 52.4767C116.117 51.7793 115.668 50.506 115.835 49.1528C115.892 48.6903 115.486 48.4297 115.065 48.6533C113.442 49.5157 111.623 49.5387 110.325 48.5411C109.177 47.6589 108.696 46.1779 108.887 44.6087C108.944 44.1386 108.523 43.8803 108.099 44.1216C105.915 45.365 103.425 45.4409 101.665 44.088C99.1119 42.1258 99.0677 37.9057 101.578 34.6903Z" fill="white"/>
<path d="M114.783 35.689L114.173 36.4819L114.173 36.4819L114.783 35.689ZM101.578 34.6903L102.366 35.3057L102.366 35.3057L101.578 34.6903ZM123.776 54.9451L123.005 54.3077L123.005 54.3078L123.776 54.9451ZM118.105 53.1423L118.698 52.3372L118.698 52.3372L118.105 53.1423ZM117.175 52.4767L116.624 53.3116L116.624 53.3116L117.175 52.4767ZM115.835 49.1528L114.842 49.0305L114.842 49.0305L115.835 49.1528ZM115.065 48.6533L115.534 49.5365L115.534 49.5365L115.065 48.6533ZM110.325 48.5411L109.715 49.3339L109.715 49.334L110.325 48.5411ZM108.887 44.6087L109.88 44.7296L109.88 44.7296L108.887 44.6087ZM108.099 44.1216L108.594 44.9905L108.594 44.9905L108.099 44.1216ZM101.665 44.088L102.274 43.2952L102.274 43.2952L101.665 44.088ZM115.392 34.8962C111.92 32.2273 109.025 31.0308 106.563 31.0365C104.034 31.0424 102.167 32.3113 100.79 34.075L102.366 35.3057C103.476 33.8836 104.814 33.0406 106.567 33.0365C108.387 33.0323 110.851 33.9281 114.173 36.4819L115.392 34.8962ZM124.546 55.5825C124.759 55.3257 124.855 55.0241 124.906 54.7938C124.961 54.5465 124.986 54.2749 124.992 53.9982C125.004 53.4437 124.945 52.7673 124.825 52.0173C124.586 50.5113 124.088 48.6013 123.329 46.5694C121.821 42.529 119.221 37.8392 115.392 34.8962L114.173 36.4819C117.58 39.1003 120.009 43.3938 121.455 47.2688C122.174 49.1946 122.634 50.9753 122.85 52.3317C122.959 53.0129 123.001 53.5607 122.992 53.953C122.988 54.1498 122.971 54.2824 122.954 54.3611C122.932 54.457 122.926 54.4034 123.005 54.3077L124.546 55.5825ZM117.512 53.9474C118.366 54.5768 119.567 55.4663 120.727 55.992C121.308 56.255 121.965 56.4689 122.623 56.4675C123.326 56.4659 124.024 56.2143 124.546 55.5825L123.005 54.3078C122.917 54.4138 122.82 54.467 122.619 54.4675C122.373 54.468 122.018 54.381 121.552 54.1702C120.62 53.7481 119.596 52.9984 118.698 52.3372L117.512 53.9474ZM116.624 53.3116C116.855 53.4638 117.148 53.6793 117.512 53.9474L118.698 52.3372C118.35 52.0807 118.009 51.8292 117.725 51.6419L116.624 53.3116ZM114.842 49.0305C114.642 50.6602 115.173 52.3545 116.624 53.3116L117.725 51.6419C117.061 51.2041 116.695 50.3517 116.827 49.275L114.842 49.0305ZM115.534 49.5365C115.482 49.5643 115.295 49.6204 115.086 49.4855C114.867 49.3436 114.831 49.1239 114.842 49.0305L116.827 49.2751C116.896 48.7192 116.686 48.138 116.172 47.8061C115.67 47.4812 115.07 47.5187 114.596 47.7701L115.534 49.5365ZM109.715 49.334C111.407 50.6343 113.668 50.5278 115.534 49.5365L114.596 47.7701C113.215 48.5035 111.838 48.4431 110.934 47.7482L109.715 49.334ZM107.894 44.4878C107.671 46.3178 108.222 48.1862 109.715 49.3339L110.934 47.7483C110.132 47.1317 109.72 46.038 109.88 44.7296L107.894 44.4878ZM108.594 44.9905C108.546 45.0179 108.361 45.0807 108.149 44.9497C107.923 44.8104 107.882 44.5855 107.894 44.4878L109.88 44.7296C109.949 44.1618 109.726 43.5727 109.198 43.247C108.683 42.9297 108.076 42.984 107.604 43.2526L108.594 44.9905ZM101.055 44.8809C103.223 46.5469 106.168 46.3717 108.594 44.9905L107.604 43.2526C105.662 44.3583 103.627 44.335 102.274 43.2952L101.055 44.8809ZM100.79 34.075C98.0812 37.5443 97.8977 42.4537 101.055 44.8809L102.274 43.2952C100.326 41.7978 100.054 38.2672 102.366 35.3057L100.79 34.075Z" fill="#1A93D0" mask="url(#path-26-inside-1_6_230)"/>
<mask id="path-28-outside-2_6_230" maskUnits="userSpaceOnUse" x="215.801" y="26.3748" width="33.9793" height="38.1841" fill="black">
<rect fill="white" x="215.801" y="26.3748" width="33.9793" height="38.1841"/>
<path fill-rule="evenodd" clip-rule="evenodd" d="M242.969 34.6903C240.482 31.5046 236.558 30.4664 229.764 35.689C222.529 41.2504 219.705 53.6558 220.771 54.9451C221.992 56.4208 224.69 54.4328 226.442 53.1423C226.798 52.88 227.114 52.6465 227.372 52.4767C228.43 51.7793 228.879 50.506 228.712 49.1528C228.655 48.6903 229.061 48.4297 229.481 48.6533C231.105 49.5157 232.924 49.5387 234.222 48.5411C235.37 47.6589 235.851 46.1779 235.66 44.6087C235.603 44.1386 236.024 43.8803 236.448 44.1216C238.632 45.365 241.122 45.4409 242.882 44.088C245.435 42.1258 245.479 37.9057 242.969 34.6903Z"/>
</mask>
<path fill-rule="evenodd" clip-rule="evenodd" d="M242.969 34.6903C240.482 31.5046 236.558 30.4664 229.764 35.689C222.529 41.2504 219.705 53.6558 220.771 54.9451C221.992 56.4208 224.69 54.4328 226.442 53.1423C226.798 52.88 227.114 52.6465 227.372 52.4767C228.43 51.7793 228.879 50.506 228.712 49.1528C228.655 48.6903 229.061 48.4297 229.481 48.6533C231.105 49.5157 232.924 49.5387 234.222 48.5411C235.37 47.6589 235.851 46.1779 235.66 44.6087C235.603 44.1386 236.024 43.8803 236.448 44.1216C238.632 45.365 241.122 45.4409 242.882 44.088C245.435 42.1258 245.479 37.9057 242.969 34.6903Z" fill="white"/>
<path d="M229.764 35.689L230.373 36.4819L230.373 36.4819L229.764 35.689ZM242.969 34.6903L242.181 35.3057L242.181 35.3057L242.969 34.6903ZM220.771 54.9451L221.542 54.3077L221.542 54.3078L220.771 54.9451ZM226.442 53.1423L225.848 52.3372L225.848 52.3372L226.442 53.1423ZM227.372 52.4767L227.922 53.3116L227.922 53.3116L227.372 52.4767ZM228.712 49.1528L229.704 49.0305L229.704 49.0305L228.712 49.1528ZM229.481 48.6533L229.012 49.5365L229.012 49.5365L229.481 48.6533ZM234.222 48.5411L234.832 49.3339L234.831 49.334L234.222 48.5411ZM235.66 44.6087L234.667 44.7296L234.667 44.7296L235.66 44.6087ZM236.448 44.1216L235.953 44.9905L235.953 44.9905L236.448 44.1216ZM242.882 44.088L242.273 43.2952L242.273 43.2952L242.882 44.088ZM229.155 34.8962C232.627 32.2273 235.522 31.0308 237.984 31.0365C240.513 31.0424 242.38 32.3113 243.757 34.075L242.181 35.3057C241.071 33.8836 239.733 33.0406 237.979 33.0365C236.16 33.0323 233.696 33.9281 230.373 36.4819L229.155 34.8962ZM220.001 55.5825C219.788 55.3257 219.692 55.0241 219.641 54.7938C219.586 54.5465 219.561 54.2749 219.555 53.9982C219.542 53.4437 219.602 52.7673 219.721 52.0173C219.961 50.5113 220.459 48.6013 221.218 46.5694C222.726 42.529 225.326 37.8392 229.155 34.8962L230.373 36.4819C226.967 39.1003 224.538 43.3938 223.091 47.2688C222.373 49.1946 221.913 50.9753 221.697 52.3317C221.588 53.0129 221.546 53.5607 221.555 53.953C221.559 54.1498 221.576 54.2824 221.593 54.3611C221.615 54.457 221.621 54.4034 221.542 54.3077L220.001 55.5825ZM227.035 53.9474C226.181 54.5768 224.98 55.4663 223.82 55.992C223.239 56.255 222.581 56.4689 221.924 56.4675C221.221 56.4659 220.523 56.2143 220.001 55.5825L221.542 54.3078C221.63 54.4138 221.727 54.467 221.928 54.4675C222.174 54.468 222.529 54.381 222.995 54.1702C223.926 53.7481 224.951 52.9984 225.848 52.3372L227.035 53.9474ZM227.922 53.3116C227.692 53.4638 227.399 53.6793 227.035 53.9474L225.848 52.3372C226.197 52.0807 226.537 51.8292 226.821 51.6419L227.922 53.3116ZM229.704 49.0305C229.905 50.6602 229.374 52.3545 227.922 53.3116L226.821 51.6419C227.485 51.2041 227.852 50.3517 227.719 49.275L229.704 49.0305ZM229.012 49.5365C229.065 49.5643 229.252 49.6204 229.461 49.4855C229.68 49.3436 229.716 49.1239 229.704 49.0305L227.719 49.2751C227.651 48.7192 227.861 48.138 228.374 47.8061C228.877 47.4812 229.477 47.5187 229.951 47.7701L229.012 49.5365ZM234.831 49.334C233.14 50.6343 230.879 50.5278 229.012 49.5365L229.951 47.7701C231.331 48.5035 232.709 48.4431 233.613 47.7482L234.831 49.334ZM236.653 44.4878C236.876 46.3178 236.324 48.1862 234.832 49.3339L233.613 47.7483C234.415 47.1317 234.827 46.038 234.667 44.7296L236.653 44.4878ZM235.953 44.9905C236.001 45.0179 236.186 45.0807 236.398 44.9497C236.624 44.8104 236.665 44.5855 236.653 44.4878L234.667 44.7296C234.598 44.1618 234.821 43.5727 235.349 43.247C235.864 42.9297 236.471 42.984 236.943 43.2526L235.953 44.9905ZM243.491 44.8809C241.324 46.5469 238.379 46.3717 235.953 44.9905L236.943 43.2526C238.885 44.3583 240.92 44.335 242.273 43.2952L243.491 44.8809ZM243.757 34.075C246.466 37.5443 246.649 42.4537 243.491 44.8809L242.273 43.2952C244.221 41.7978 244.493 38.2672 242.181 35.3057L243.757 34.075Z" fill="#1A93D0" mask="url(#path-28-outside-2_6_230)"/>
</svg>
