<svg width="347" height="295" viewBox="0 0 347 295" fill="none" xmlns="http://www.w3.org/2000/svg">
<circle cx="173.5" cy="160.5" r="107" stroke="#FFD336" stroke-width="5"/>
<path d="M240 87.5C240 124.227 210.227 132 173.5 132C136.773 132 107 124.227 107 87.5C107 50.7731 136.773 21 173.5 21C210.227 21 240 50.7731 240 87.5Z" fill="#F7515C"/>
<path d="M234 86.509C234 119.927 206.913 127 173.5 127C140.087 127 113 119.927 113 86.509C113 53.0908 140.087 26 173.5 26C206.913 26 234 53.0908 234 86.509Z" fill="#FFD336"/>
<path d="M148 29.5L173.5 24L200 30L186.5 60.5H159.5L148 29.5Z" fill="#F7515C"/>
<path d="M128.354 42L137 36L127.788 65.938C127.296 67.5382 126.035 68.7859 124.43 69.2615L112 72.9444L128.354 42Z" fill="#F7515C"/>
<path d="M220.255 42.2619L211.609 36.2619L220.821 66.1999C221.313 67.8002 222.574 69.0478 224.179 69.5235L236.609 73.2064L220.255 42.2619Z" fill="#F7515C"/>
<path d="M152 117H198L207 128H143L152 117Z" fill="#F7515C"/>
<path d="M134.471 75.9986C134.5 75.4471 134.971 75.0234 135.522 75.0523L161.486 76.4131C162.038 76.442 162.462 76.9125 162.433 77.464L162.014 85.4531C161.985 86.0046 161.515 86.4283 160.963 86.3994L134.999 85.0386C134.447 85.0097 134.024 84.5392 134.052 83.9877L134.471 75.9986Z" fill="white"/>
<path d="M186.052 77.464C186.023 76.9125 186.447 76.442 186.999 76.4131L212.963 75.0523C213.515 75.0234 213.985 75.4471 214.014 75.9986L214.433 83.9877C214.462 84.5392 214.038 85.0097 213.486 85.0386L187.522 86.3994C186.97 86.4283 186.5 86.0046 186.471 85.4531L186.052 77.464Z" fill="white"/>
<path d="M220 188.509C220 235.172 199.405 273 174 273C148.595 273 128 235.172 128 188.509C128 141.845 148.595 136 174 136C199.405 136 220 141.845 220 188.509Z" fill="#F7515C"/>
<path d="M75.5945 232.97C68.0864 229.469 64.8381 220.544 68.3392 213.036L97.9224 149.595C101.424 142.087 110.348 138.838 117.856 142.339V142.339C125.364 145.84 128.613 154.765 125.112 162.273L95.5284 225.715C92.0273 233.223 83.1026 236.471 75.5945 232.97V232.97Z" fill="#F7515C"/>
<rect x="85.2439" y="176.784" width="30" height="24" transform="rotate(25 85.2439 176.784)" fill="#FFD336"/>
<rect x="92.0059" y="162.283" width="30" height="7" transform="rotate(25 92.0059 162.283)" fill="#FFD336"/>
<path d="M272.856 232.97C280.364 229.469 283.613 220.544 280.112 213.036L250.528 149.595C247.027 142.087 238.103 138.838 230.594 142.339V142.339C223.086 145.84 219.838 154.765 223.339 162.273L252.922 225.715C256.424 233.223 265.348 236.471 272.856 232.97V232.97Z" fill="#F7515C"/>
<rect width="30" height="24" transform="matrix(-0.906308 0.422618 0.422618 0.906308 263.207 176.784)" fill="#FFD336"/>
<rect width="30" height="7" transform="matrix(-0.906308 0.422618 0.422618 0.906308 256.445 162.283)" fill="#FFD336"/>
<circle cx="173.5" cy="174.5" r="14.5" fill="white" stroke="#656465" stroke-width="2"/>
<path d="M70.1674 247.692C70.1674 247.692 71.4486 246.174 73.5912 244.364C74.1834 248.783 75.8155 254.238 79.0409 260.896C79.0409 260.896 80.0808 253.747 83.5711 246.977C85.1038 250.036 85.7631 252.439 85.7631 252.439C96.7565 238.158 87.6088 228.065 81.8739 228.074C74.513 228.086 68.0427 232.669 70.1674 247.692ZM81.4981 228.987C83.1021 228.985 86.6847 230.432 88.4261 237.116C88.4261 237.116 87.8036 236.704 86.7916 236.227C86.754 238.539 86.0434 241.498 84.2192 245.234C84.2192 245.234 83.7578 243.632 82.6852 241.592C80.2417 246.106 79.5133 250.874 79.5133 250.874C77.2555 246.434 76.1135 242.797 75.6987 239.85C74.1993 241.058 73.3021 242.07 73.3021 242.07C73.3997 239.104 73.8368 236.778 74.4717 234.961C73.468 235.176 72.8339 235.405 72.8339 235.405C75.7165 230.096 78.6323 228.992 81.4981 228.987Z" fill="#37D9B2"/>
<path d="M84.9504 237.994C84.9504 237.994 83.7662 235.903 82.8689 236.41C82.8689 236.41 81.1672 239.859 78.7204 241.779C78.7204 241.779 79.2152 236.524 78.6353 235.597C77.8662 234.363 75.7919 236.971 75.7919 236.971C75.7869 233.866 78.404 229.95 80.7511 229.946C83.0814 229.943 86.3904 233.305 84.9504 237.994Z" fill="#37D9B2"/>
<path d="M73.2085 252.089C72.3267 253.754 71.7282 255.459 71.7282 255.459C70.2399 252.302 71.1122 250.38 71.7629 249.752C72.636 248.907 74.2264 250.165 73.2085 252.089" fill="#37D9B2"/>
<path d="M89.352 252.603C90.2207 254.53 90.3218 256.933 90.3218 256.933C92.4299 252.801 91.6003 250.555 90.8958 249.875C89.9504 248.964 88.3495 250.377 89.352 252.603Z" fill="#37D9B2"/>
<path d="M84.4389 256.899C84.3332 258.195 84.7534 259.538 84.7534 259.538C82.7451 257.866 82.7668 256.406 83.0273 255.837C83.3785 255.074 84.5616 255.402 84.4389 256.899" fill="#37D9B2"/>
<path d="M278.284 247.692C278.284 247.692 277.002 246.174 274.86 244.364C274.268 248.783 272.635 254.238 269.41 260.896C269.41 260.896 268.37 253.747 264.88 246.977C263.347 250.036 262.688 252.439 262.688 252.439C251.694 238.158 260.842 228.065 266.577 228.074C273.938 228.086 280.408 232.669 278.284 247.692ZM266.953 228.987C265.349 228.985 261.766 230.432 260.025 237.116C260.025 237.116 260.647 236.704 261.659 236.227C261.697 238.539 262.408 241.498 264.232 245.234C264.232 245.234 264.693 243.632 265.766 241.592C268.209 246.106 268.938 250.874 268.938 250.874C271.195 246.434 272.337 242.797 272.752 239.85C274.252 241.058 275.149 242.07 275.149 242.07C275.051 239.104 274.614 236.778 273.979 234.961C274.983 235.176 275.617 235.405 275.617 235.405C272.734 230.096 269.819 228.992 266.953 228.987Z" fill="#37D9B2"/>
<path d="M263.501 237.994C263.501 237.994 264.685 235.903 265.582 236.41C265.582 236.41 267.284 239.859 269.73 241.779C269.73 241.779 269.236 236.524 269.816 235.597C270.585 234.363 272.659 236.971 272.659 236.971C272.664 233.866 270.047 229.95 267.7 229.946C265.37 229.943 262.061 233.305 263.501 237.994Z" fill="#37D9B2"/>
<path d="M275.242 252.089C276.124 253.754 276.723 255.459 276.723 255.459C278.211 252.302 277.339 250.38 276.688 249.752C275.815 248.907 274.224 250.165 275.242 252.089" fill="#37D9B2"/>
<path d="M259.099 252.603C258.23 254.53 258.129 256.933 258.129 256.933C256.021 252.801 256.851 250.555 257.555 249.875C258.501 248.964 260.101 250.377 259.099 252.603Z" fill="#37D9B2"/>
<path d="M264.012 256.899C264.118 258.195 263.698 259.538 263.698 259.538C265.706 257.866 265.684 256.406 265.424 255.837C265.072 255.074 263.889 255.402 264.012 256.899" fill="#37D9B2"/>
<path d="M127.927 194L179.605 215.314L174.5 222.5L128.863 205.63L128.142 198.699L127.927 194Z" fill="#FFD336"/>
<path d="M219.779 194L168.101 215.314L174.5 222.5L218.843 205.63L219.564 198.699L219.779 194Z" fill="#FFD336"/>
</svg>
