<svg width="347" height="312" viewBox="0 0 347 312" fill="none" xmlns="http://www.w3.org/2000/svg">
<circle cx="170.602" cy="159.889" r="107" fill="white" stroke="#F7515C" stroke-width="5"/>
<path d="M246.381 111.062C237.959 146.81 207.197 147.549 171.449 139.127C135.7 130.706 108.503 116.313 116.924 80.5646C125.346 44.8162 161.153 22.6634 196.901 31.0849C232.649 39.5064 254.802 75.3132 246.381 111.062Z" fill="#F7515C"/>
<path d="M247.702 101.093L236.63 98.4844C224.131 86.8716 218.21 71.2602 220.665 56.4088L228.136 49.5002L225.359 47.1125L217.888 54.021C200.919 56.9582 182.729 52.6731 168.856 42.47L165.254 32.9531L161.704 33.8505L165.305 43.3673C160.873 57.753 148.566 69.2435 132.237 73.8919L121.165 71.2836L120.43 74.4044L131.502 77.0127C144.039 88.4612 149.922 104.237 147.467 119.088L139.996 125.997L142.773 128.385L150.244 121.476C167.213 118.539 185.403 122.824 199.276 133.027L202.878 142.544L206.428 141.647L202.827 132.13C207.259 117.744 219.565 106.254 235.895 101.605L246.966 104.213L247.702 101.093V101.093ZM230.501 97.0405L219.626 94.4788C211.572 87.0335 207.533 76.72 209.184 67.0535L216.616 60.3092C215.652 73.2583 220.693 86.4083 230.501 97.0405ZM184.82 84.5456L181.86 76.7399C183.166 77.3944 184.709 77.9313 186.291 78.3039C187.873 78.6765 189.493 78.8849 190.954 78.8824L184.82 84.5456V84.5456ZM193.731 81.2702C194.139 83.9669 195.179 86.6391 196.692 89.0759L187.597 86.9333L193.731 81.2702V81.2702ZM181.27 85.4429L172.175 83.3004C174.617 81.7951 176.74 79.8681 178.309 77.6372L181.27 85.4429ZM180.535 88.5637L174.401 94.2269C173.993 91.5302 172.953 88.858 171.44 86.4212L180.535 88.5637ZM183.35 90.7872L186.311 98.5929C183.461 97.4015 180.298 96.6562 177.216 96.4504L183.35 90.7872V90.7872ZM186.862 90.0542L195.957 92.1967C193.515 93.702 191.392 95.6289 189.823 97.8598L186.862 90.0542V90.0542ZM202.228 90.38C198.656 86.9381 196.817 82.3439 197.466 77.8159L205.173 70.7897C205.014 78.5537 207.936 86.5237 213.497 93.0349L202.228 90.38V90.38ZM194.69 75.4282C189.678 76.3279 184.142 75.0238 180.059 71.9815L176.496 62.3004C180.339 64.5925 184.572 66.11 188.922 67.1347C193.272 68.1594 197.776 68.527 202.199 68.3554L194.69 75.4282V75.4282ZM176.547 72.7145C175.107 77.0562 171.608 80.3928 166.678 81.832L155.408 79.1771C163.292 75.8331 169.425 70.1699 172.787 62.9869L176.547 72.7145ZM165.904 85.117C169.476 88.5589 171.315 93.1531 170.666 97.6811L162.959 104.707C163.118 96.9433 160.196 88.9734 154.635 82.4622L165.904 85.117V85.117ZM173.481 99.9046C178.493 99.0048 184.029 100.309 188.112 103.351L191.872 113.079C184.148 108.659 174.856 106.47 165.972 106.977L173.481 99.9046ZM191.623 102.618C193.063 98.2766 196.562 94.94 201.493 93.5008L212.762 96.1557C204.879 99.4997 198.745 105.163 195.384 112.346L191.623 102.618V102.618ZM191.476 56.2939C198.791 58.0173 206.378 58.5908 213.642 57.8749L206.21 64.6192C195.12 66.5143 183.257 63.7197 174.378 57.1203L170.738 47.7677C177.116 51.6975 184.161 54.5706 191.476 56.2939ZM167.385 48.7116L171.025 58.0642C167.99 67.4046 159.969 74.877 149.438 77.944L138.366 75.3357C151.889 70.1996 162.27 60.6826 167.385 48.7116V48.7116ZM137.829 78.5031L148.703 81.0649C156.757 88.5101 160.638 98.6128 158.948 108.444L151.516 115.188C152.48 102.239 147.478 88.9245 137.829 78.5031V78.5031ZM154.529 117.458L161.961 110.714C173.05 108.818 184.913 111.613 193.793 118.212L197.433 127.565C184.676 119.706 169.255 116.073 154.529 117.458V117.458ZM200.747 126.785L197.304 117.479C200.142 108.092 208.163 100.62 218.891 97.5996L229.765 100.161C216.282 105.133 205.862 114.814 200.747 126.785" fill="#991F1F" fill-opacity="0.15"/>
<path d="M171.046 91.5553C164.311 98.8672 152.924 99.3349 145.612 92.5998C138.3 85.8647 137.832 74.4773 144.567 67.1654C151.303 59.8534 153.035 66.241 160.347 72.9761C167.659 79.7112 174.601 86.6077 171.046 91.5553Z" fill="white"/>
<path d="M172.15 92.5715L172.211 92.5045L172.265 92.4305C174.645 89.117 173.273 85.3571 171.005 82.0821C168.689 78.7384 164.999 75.2218 161.363 71.8728C159.716 70.3555 158.36 68.8559 157.126 67.491C157.035 67.3906 156.945 67.2909 156.856 67.192C155.589 65.7928 154.36 64.4512 153.098 63.5723C151.764 62.6432 150.237 62.1212 148.462 62.5914C146.817 63.0273 145.205 64.2592 143.464 66.1491C136.168 74.0704 136.674 86.4067 144.596 93.7031C152.517 100.999 164.853 100.493 172.15 92.5715Z" stroke="black" stroke-opacity="0.7" stroke-width="3"/>
<path d="M194.647 97.1151C197.41 106.665 207.391 112.166 216.941 109.403C226.49 106.64 231.992 96.6591 229.229 87.1096C226.466 77.5602 222.065 82.5028 212.515 85.2657C202.966 88.0287 193.675 91.1012 194.647 97.1151Z" fill="white"/>
<path d="M193.206 97.532L193.181 97.4444L193.166 97.3545C192.515 93.3268 195.422 90.5749 198.913 88.6567C202.478 86.6982 207.35 85.1987 212.098 83.8248C214.25 83.2024 216.132 82.4657 217.845 81.795C217.971 81.7457 218.097 81.6967 218.221 81.6482C219.979 80.9615 221.678 80.3097 223.199 80.0864C224.807 79.8504 226.407 80.065 227.786 81.2783C229.063 82.4027 229.956 84.2245 230.67 86.6927C233.663 97.038 227.703 107.851 217.358 110.844C207.012 113.837 196.199 107.877 193.206 97.532Z" stroke="black" stroke-opacity="0.7" stroke-width="3"/>
<path d="M69.7002 60.1482C77.8657 55.6193 88.0877 60.246 90.0736 69.3697L95.284 93.3064C96.6004 99.3541 99.6825 104.875 104.14 109.169L120.982 125.396C127.747 131.915 126.28 143.118 118.064 147.675V147.675C112.38 150.828 105.273 149.644 100.917 144.819L82.5474 124.469C77.7717 119.179 74.2214 112.9 72.1494 106.081L63.1265 76.384C61.217 70.0991 63.956 63.3342 69.7002 60.1482V60.1482Z" fill="#F7515C"/>
<path d="M99.0446 123.306C100.491 124.638 100.211 126.995 98.4932 127.952L89.8226 132.783V132.783C79.1693 123.286 71.874 110.598 69.0264 96.6141L68.6491 94.7613L77.0492 89.6964C78.7937 88.6446 81.053 89.646 81.4452 91.645L81.5049 91.9496C83.8691 104.001 90.0131 114.984 99.0446 123.306V123.306Z" fill="#1A93D0"/>
<path d="M203.752 204.793C193.052 250.213 164.332 282.311 139.604 276.485C114.876 270.66 103.503 229.117 114.203 183.697C124.903 138.277 146.29 137.31 171.018 143.136C195.746 148.961 214.452 159.373 203.752 204.793Z" fill="#1A93D0"/>
<path fill-rule="evenodd" clip-rule="evenodd" d="M164.812 269.784C156.578 275.229 147.989 277.433 139.833 275.512C131.678 273.591 124.975 267.785 120.038 259.236L141.064 169.982C141.697 167.294 140.032 164.602 137.344 163.969L122.136 160.387C133.881 137.19 151.498 137.51 171.247 142.162C190.996 146.815 206.904 154.393 207.059 180.392L191.852 176.81C189.164 176.177 186.472 177.842 185.838 180.53L164.812 269.784Z" fill="#F7515C"/>
<g clip-path="url(#clip0_2_163)">
<path opacity="0.8" d="M171.3 192.088L173.506 190.724L170.412 185.775L166.892 183.818L169.371 184.056L175.586 181.274L174.552 178.907L168.917 181.362L165.415 181.134L170.383 178.071L170.335 172.022L167.678 172.033L167.737 176.625L166.017 177.733C165.887 176.984 165.54 176.29 165.02 175.737C164.499 175.184 163.827 174.796 163.087 174.622C162.348 174.447 161.573 174.494 160.86 174.757C160.147 175.019 159.527 175.486 159.077 176.098L157.994 174.33L160.134 170.256L157.762 169.06L155.019 174.452L158.097 179.41L154.849 178.048L150.915 173.339L148.933 174.995L153.265 180.262L155.512 181.203L151.488 181.383L146.576 184.379L147.941 186.585L152.284 183.866L155.462 183.726L149.613 186.754L147.996 193.618L150.51 194.211L151.855 188.503L154.213 187.28C154.12 188.654 154.517 190.017 155.335 191.126C156.153 192.234 157.339 193.016 158.679 193.332C160.02 193.648 161.43 193.477 162.656 192.85C163.883 192.224 164.848 191.182 165.377 189.91L166.942 192.057L165.597 197.765L168.112 198.357L169.729 191.493L165.847 186.172L168.628 187.717L171.3 192.088Z" fill="black"/>
</g>
<path d="M231.217 260.376C222.935 260.565 216.067 254.005 215.878 245.722L214.278 175.741C214.089 167.459 220.649 160.591 228.931 160.402V160.402C237.213 160.212 244.081 166.773 244.27 175.055L245.87 245.037C246.06 253.319 239.499 260.186 231.217 260.376V260.376Z" fill="#F7515C"/>
<path d="M228.709 194.416C228.646 191.655 226.356 189.468 223.596 189.531L214.598 189.737L215.604 233.726L224.601 233.52C227.362 233.457 229.549 231.168 229.486 228.407L228.709 194.416Z" fill="#1A93D0"/>
<defs>
<clipPath id="clip0_2_163">
<rect width="31" height="31" fill="white" transform="translate(149.483 164.774) rotate(13.2559)"/>
</clipPath>
</defs>
</svg>
