<svg width="411" height="411" viewBox="0 0 411 411" fill="none" xmlns="http://www.w3.org/2000/svg">
<circle cx="205.051" cy="205.051" r="107" stroke="#1A93D0" stroke-width="5"/>
<path d="M169.857 270.102C156.257 265.702 145.19 250.936 141.357 244.102V231.602L178.357 205.102L193.857 193.102L237.357 166.102C257.024 187.436 300.757 233.202 312.357 235.602C323.46 237.899 330.41 236.715 331.716 235.733C331.764 235.689 331.811 235.645 331.857 235.602C331.821 235.645 331.774 235.689 331.716 235.733C327.109 239.971 315.273 249.664 316.857 255.602C318.447 261.563 327.242 257.654 331.769 255.641L331.857 255.602C320.857 276.602 278.157 289.902 241.357 285.102C195.357 279.102 186.857 275.602 169.857 270.102Z" fill="#F7515C"/>
<path d="M252.908 210.983C281.056 248.201 287.447 290.795 267.184 306.119C246.922 321.444 207.677 303.695 179.53 266.477C151.383 229.259 164.283 212.174 184.546 196.849C204.809 181.525 224.761 173.765 252.908 210.983Z" fill="#1A93D0"/>
<path d="M194.87 284.185L265.359 231.502L268.482 237.29L199.989 289.09L194.87 284.185Z" fill="#FFD336"/>
<path d="M200.714 288.685L268.908 237.112L268.003 270.725C267.921 273.763 266.462 276.599 264.038 278.432L242.498 294.722C240.13 296.513 237.089 297.159 234.198 296.485L200.714 288.685Z" fill="#F7515C"/>
<path d="M288.765 260.869C288.507 260.531 288.062 259.858 287.357 258.602L292.357 247.102L278.357 242.102L301.857 237.102C310.857 237.102 303.357 232.102 312.357 235.602C322.772 239.652 330.149 236.951 331.651 235.792C331.721 235.728 331.79 235.664 331.857 235.602C331.81 235.659 331.741 235.723 331.651 235.792C326.999 240.061 315.281 249.692 316.857 255.602C318.447 261.563 327.242 257.654 331.769 255.641L331.857 255.602C320.857 276.602 279.357 282.602 279.357 282.602C279.357 282.602 287.357 273.102 287.357 267.102C287.357 261.18 288.277 260.661 288.765 260.869Z" fill="#F7515C"/>
<path d="M207.506 118.533C229.66 147.826 210.602 171.985 181.309 194.139C152.016 216.292 123.58 228.052 101.427 198.758C79.273 169.465 85.0607 127.76 114.354 105.606C143.647 83.4523 185.353 89.24 207.506 118.533Z" fill="#FEF391"/>
<path d="M140.024 170.902C140.327 176.693 134.983 181.68 128.089 182.041C121.195 182.401 115.361 177.998 115.058 172.207C114.755 166.416 120.315 164.017 127.209 163.656C134.104 163.296 139.721 165.111 140.024 170.902Z" fill="white"/>
<path d="M171.006 147.471C176.496 149.339 182.75 145.555 184.974 139.02C187.198 132.484 184.55 125.672 179.06 123.804C173.571 121.935 169.748 126.632 167.523 133.167C165.299 139.703 165.517 145.603 171.006 147.471Z" fill="white"/>
<ellipse cx="132.007" cy="168.736" rx="4.5" ry="4" transform="rotate(-37.0994 132.007 168.736)" fill="#1A93D0"/>
<ellipse rx="4.5" ry="4" transform="matrix(-0.797591 0.603199 0.603199 0.797591 171.105 139.167)" fill="#1A93D0"/>
<path d="M297.082 236.975C290.474 241.972 281.067 240.667 276.07 234.059L233.846 178.228C228.849 171.62 230.154 162.213 236.762 157.216C243.369 152.219 252.776 153.524 257.773 160.132L299.997 215.963C304.994 222.571 303.689 231.978 297.082 236.975Z" fill="#1A93D0"/>
<g clip-path="url(#clip0_6_502)">
<path d="M181.188 238.739L221.918 246.176L224.258 206.166L212.351 204.514L182.84 226.833L181.188 238.739Z" fill="#FFD336"/>
<path d="M226.234 208.047L223.536 245.821C223.428 246.786 222.982 247.565 222.198 248.158C221.414 248.752 220.528 248.98 219.54 248.843L182.459 241.154C181.494 241.046 180.714 240.6 180.121 239.816C179.528 239.031 179.3 238.145 179.437 237.158L180.822 227.177C180.959 226.189 181.412 225.405 182.182 224.823L210.596 203.334C211.366 202.752 212.244 202.529 213.232 202.666L223.213 204.051C224.178 204.159 224.963 204.612 225.567 205.411C226.171 206.21 226.394 207.089 226.234 208.047ZM220.027 245.334L220.734 235.656C220.209 236.193 219.666 236.674 219.103 237.099L215.019 240.188C213.272 241.509 211.607 242.536 210.021 243.27L220.027 245.334ZM201.486 241.489L205.748 238.266C206.465 239.213 207.424 239.604 208.625 239.44C209.827 239.276 211.005 238.757 212.16 237.884L215.001 235.735C216.688 234.459 217.675 233.411 217.961 232.589C218.247 231.768 217.965 230.795 217.114 229.67C216.465 228.812 215.486 228.471 214.177 228.647C212.867 228.823 211.236 229.649 209.282 231.127C207.003 232.85 205.216 234.179 203.921 235.111C202.626 236.044 201.114 237.013 199.385 238.019C197.656 239.024 196.154 239.729 194.879 240.135L201.486 241.489ZM184.331 227.664L182.946 237.645L188.316 238.748L188.16 238.587L187.936 238.337C186.884 236.946 186.515 235.074 186.828 232.72C187.142 230.366 187.943 228.073 189.233 225.841C190.523 223.609 192.026 221.844 193.743 220.546L184.331 227.664ZM199.959 215.845C204.043 212.756 207.52 211.755 210.389 212.842L209.904 208.324L199.959 215.845ZM215.63 206.575L215.622 212.932L209.939 217.23C209.447 216.579 208.692 216.289 207.676 216.36C206.659 216.431 205.67 216.691 204.706 217.14C203.743 217.589 202.877 218.105 202.108 218.687L197.845 221.91C196.01 223.298 194.767 224.576 194.115 225.743C193.462 226.911 193.528 228.013 194.311 229.049C194.893 229.819 196.285 229.813 198.486 229.032C200.687 228.252 202.854 227.055 204.985 225.444C207.145 223.81 209.113 222.566 210.887 221.713C212.661 220.86 214.168 220.407 215.407 220.353C216.646 220.3 217.684 220.457 218.52 220.825C219.357 221.193 220.066 221.762 220.648 222.531C220.872 222.827 221.178 223.293 221.567 223.93L222.726 207.56L215.63 206.575Z" fill="#F7515C"/>
</g>
<path d="M122.554 137.017C120.842 133.924 120.922 129.057 124.401 123.71L136.462 113.961C132.111 117.879 124.528 130.509 127.145 134.799C129.37 138.446 131.864 139.38 136.951 136.16C141.614 133.207 140.219 128.876 138.312 126.354C136.804 124.36 143.48 126.833 143.73 131.032C143.945 134.631 143.751 136.032 138.167 140.255C132.584 144.477 125.262 141.908 122.554 137.017Z" fill="black" stroke="black"/>
<path d="M177.621 97.2525C185.449 107.604 150.337 104.722 129.414 120.546C108.49 136.37 96.9169 174.559 89.0882 164.208C81.2594 153.856 93.4301 121.43 114.354 105.606C135.277 89.7819 169.792 86.9009 177.621 97.2525Z" fill="black"/>
<path d="M71.3949 187C75.9556 180.084 85.2592 178.175 92.175 182.736L150.612 221.273C157.528 225.834 159.437 235.137 154.876 242.053C150.316 248.969 141.012 250.878 134.096 246.317L75.6591 207.78C68.7433 203.219 66.8341 193.916 71.3949 187Z" fill="#1A93D0"/>
<path d="M101.358 188.791L84.842 213.836L75.659 207.78C68.7432 203.219 66.834 193.916 71.3948 187C75.9555 180.084 85.2591 178.175 92.175 182.736L101.358 188.791Z" fill="#FEF391"/>
<defs>
<clipPath id="clip0_6_502">
<rect width="57" height="42.75" fill="white" transform="translate(173.658 231.269) rotate(-37.0994)"/>
</clipPath>
</defs>
</svg>
