<svg width="66" height="66" viewBox="0 0 66 66" fill="none" xmlns="http://www.w3.org/2000/svg">
<path fill-rule="evenodd" clip-rule="evenodd" d="M10.4756 0.634155C4.95274 0.634155 0.475586 5.11131 0.475586 10.6342V56C0.475586 61.5229 4.95274 66 10.4756 66H55.8414C61.3643 66 65.8414 61.5229 65.8414 56V10.6342C65.8414 5.11131 61.3643 0.634155 55.8414 0.634155H10.4756ZM48.3066 34.9485C46.9165 36.4003 46.1388 38.3446 46.1162 40.4245C43.5775 40.3862 41.143 41.1036 39.1233 42.4851C37.1036 43.8666 35.5903 45.8497 34.7764 48.1812L33.9253 50.5983L32.7699 48.1431C31.6592 45.7855 29.8921 43.758 27.694 42.3192C25.4958 40.8805 22.9664 40.0956 20.4283 40.0648C20.1421 37.9809 19.1179 36.012 17.5431 34.5186C16.6793 33.6912 15.6719 33.0306 14.5793 32.5752C13.4868 32.1199 12.3308 31.8788 11.1783 31.8659L7.13633 31.81C10.1282 27.7657 14.39 24.8544 19.3254 23.4836L19.4125 23.4546L19.4385 23.9128C19.5911 26.232 20.657 28.4671 22.4034 30.1297C24.1497 31.7923 26.4345 32.7472 28.7584 32.7857C28.8473 32.7876 28.9343 32.7719 29.0145 32.7395C29.0946 32.707 29.1661 32.6585 29.225 32.5966C29.2839 32.5348 29.3289 32.4609 29.3573 32.3793C29.3858 32.2977 29.3972 32.21 29.3909 32.1214L29.1288 27.9925L29.1398 28.0031C30.1773 28.6803 31.37 29.0505 32.5672 29.0671C33.7644 29.0836 34.9124 28.7457 35.8663 28.096L35.8752 28.0867L36.1346 32.2183C36.1396 32.3068 36.1621 32.3948 36.201 32.4772C36.2398 32.5595 36.2941 32.6346 36.3607 32.6981C36.4274 32.7615 36.505 32.8121 36.5892 32.8468C36.6734 32.8815 36.7624 32.8997 36.851 32.9003C39.1749 32.9269 41.3442 32.0337 42.8843 30.416C44.4245 28.7983 45.2101 26.5878 45.0694 24.2679L45.0397 23.8116L45.1322 23.8393C50.2498 25.3499 54.886 28.3868 58.3907 32.524L54.3498 32.4691C53.1967 32.4497 52.0688 32.6589 51.0315 33.0845C49.9941 33.5101 49.0679 34.1437 48.3066 34.9485Z" fill="white"/>
</svg>
