<svg width="66" height="66" viewBox="0 0 66 66" fill="none" xmlns="http://www.w3.org/2000/svg">
<path fill-rule="evenodd" clip-rule="evenodd" d="M10.1587 0C4.63584 0 0.158691 4.47715 0.158691 10V55.3659C0.158691 60.8887 4.63584 65.3659 10.1587 65.3659H55.5245C61.0474 65.3659 65.5245 60.8887 65.5245 55.3659V10C65.5245 4.47715 61.0474 0 55.5245 0H10.1587ZM38.6064 24.7425L49.6289 26.3579C50.3886 26.4717 50.9182 27.1809 50.801 27.947C50.7576 28.2534 50.6143 28.5336 50.3973 28.7481L42.4224 36.5885L44.3065 47.6597C44.4367 48.4214 43.9288 49.1437 43.1734 49.275C42.8739 49.3276 42.5613 49.2794 42.2921 49.1349L32.4332 43.908L22.5742 49.1349C22.345 49.257 22.0865 49.3118 21.828 49.2932C21.5694 49.2746 21.3212 49.1834 21.1115 49.0298C20.9018 48.8762 20.739 48.6664 20.6415 48.4242C20.544 48.1821 20.5157 47.9172 20.5599 47.6597L22.444 36.5885L14.4691 28.7481C14.205 28.4885 14.054 28.1338 14.0491 27.762C14.0442 27.3902 14.1859 27.0316 14.4431 26.765C14.6558 26.5461 14.9336 26.4017 15.2375 26.3579L26.2599 24.7425L31.1872 14.6695C31.5302 13.9778 32.3637 13.6933 33.0496 14.0347C33.3231 14.1704 33.5445 14.3937 33.6791 14.6695L38.6064 24.7425Z" fill="white"/>
</svg>
