<svg width="66" height="66" viewBox="0 0 66 66" fill="none" xmlns="http://www.w3.org/2000/svg">
<path fill-rule="evenodd" clip-rule="evenodd" d="M0 10C0 4.47715 4.47715 0 10 0H55.3659C60.8887 0 65.3659 4.47715 65.3659 10V55.3659C65.3659 60.8887 60.8887 65.3659 55.3659 65.3659H10C4.47715 65.3659 0 60.8887 0 55.3659V10ZM43.3049 32.2744C43.3049 38.3664 38.3664 43.3049 32.2744 43.3049C26.1824 43.3049 21.2439 38.3664 21.2439 32.2744C21.2439 26.1824 26.1824 21.2439 32.2744 21.2439C38.3664 21.2439 43.3049 26.1824 43.3049 32.2744ZM32.2744 48.7561C41.377 48.7561 48.7561 41.377 48.7561 32.2744C48.7561 23.1718 41.377 15.7927 32.2744 15.7927C23.1718 15.7927 15.7927 23.1718 15.7927 32.2744C15.7927 41.377 23.1718 48.7561 32.2744 48.7561ZM45.7561 32.2744C45.7561 39.7201 39.7202 45.7561 32.2744 45.7561C24.8287 45.7561 18.7927 39.7201 18.7927 32.2744C18.7927 24.8286 24.8287 18.7927 32.2744 18.7927C39.7202 18.7927 45.7561 24.8286 45.7561 32.2744Z" fill="white"/>
</svg>
