<svg width="66" height="66" viewBox="0 0 66 66" fill="none" xmlns="http://www.w3.org/2000/svg">
<path fill-rule="evenodd" clip-rule="evenodd" d="M10 0C4.47715 0 0 4.47715 0 10V55.3659C0 60.8887 4.47715 65.3659 10 65.3659H55.3659C60.8887 65.3659 65.3659 60.8887 65.3659 55.3659V10C65.3659 4.47715 60.8887 0 55.3659 0H10ZM50.6586 37.9321L48.2211 40.3696L43.4319 35.529L39.3637 34.3789L46.0067 40.0778V49.4501H42.5737V41.657L39.8958 39.3569C39.5979 41.1632 38.6681 42.8049 37.2722 43.9894C35.8763 45.1739 34.1051 45.8241 32.2744 45.8241C30.4437 45.8241 28.6725 45.1739 27.2766 43.9894C25.8807 42.8049 24.9509 41.1632 24.653 39.3569L21.9752 41.657V49.4501H18.5421V40.0778L25.1851 34.3789L21.1169 35.529L16.3277 40.3696L13.8903 37.9321L19.3317 32.5594L24.4813 31.1003L21.2885 30.5682L14.0791 25.0752L16.1389 22.3288L22.6618 27.2209L27.2793 27.9934L21.7863 22.5176L23.6917 14.7073L27.1248 15.5313L25.5971 21.4533L27.5368 23.4102C27.9325 22.4813 28.5926 21.6892 29.4349 21.1324C30.2773 20.5756 31.2647 20.2788 32.2744 20.2788C33.2841 20.2788 34.2716 20.5756 35.1139 21.1324C35.9562 21.6892 36.6163 22.4813 37.0121 23.4102L38.9003 21.4533L37.424 15.5313L40.8571 14.7073L42.7625 22.5176L37.2695 27.9934L41.8699 27.2209L48.4099 22.3288L50.4697 25.0752L43.2774 30.5682L39.9988 31.0145L45.1485 32.4735L50.6586 37.9321Z" fill="white"/>
</svg>
