<svg width="66" height="67" viewBox="0 0 66 67" fill="none" xmlns="http://www.w3.org/2000/svg">
<path fill-rule="evenodd" clip-rule="evenodd" d="M10.6343 0.817078C5.11143 0.817078 0.634277 5.29423 0.634277 10.8171V56.1829C0.634277 61.7058 5.11143 66.1829 10.6343 66.1829H56.0001C61.523 66.1829 66.0001 61.7058 66.0001 56.1829V10.8171C66.0001 5.29423 61.523 0.817078 56.0001 0.817078H10.6343ZM35.0271 51.4033L56.1178 27.4358C56.7141 26.8741 57.0122 26.1719 57.0122 25.3293C57.0122 24.4867 56.7141 23.7845 56.1178 23.2228L50.0919 17.2309C49.4955 16.638 48.7894 16.3415 47.9734 16.3415H17.8438C17.0278 16.3415 16.3216 16.638 15.7253 17.2309L9.6994 23.2228C9.10309 23.8157 8.80493 24.5257 8.80493 25.3527C8.80493 26.1797 9.10309 26.8741 9.6994 27.4358L30.7901 51.4033C31.3864 51.9962 32.1004 52.2927 32.9321 52.2927C33.7638 52.2927 34.4621 51.9962 35.0271 51.4033ZM38.3225 43.1645L32.9086 49.2968L27.2122 42.8368C28.6559 43.1489 30.3036 43.3049 32.1554 43.3049H36.4865C37.0828 43.3049 37.6948 43.2581 38.3225 43.1645ZM26.8827 37.313H22.3632L18.597 33.0532C19.6641 33.4277 21.0372 33.7164 22.7163 33.9192C24.3954 34.1221 25.9097 34.2391 27.2593 34.2703C28.6088 34.3015 30.4919 34.3171 32.9086 34.3171C34.98 34.3171 36.5022 34.5902 37.4751 35.1363C38.448 35.6824 38.9345 36.408 38.9345 37.313C38.9345 38.4989 38.6285 39.2947 38.0165 39.7004C37.4045 40.1061 36.204 40.309 34.4151 40.309H31.4021C30.1781 40.309 29.1189 40.0593 28.2244 39.56C27.3299 39.0607 26.8827 38.3117 26.8827 37.313ZM11.8179 25.3293L17.8438 19.3374H27.8242C26.0039 19.3374 24.0894 19.7587 22.0808 20.6013C20.0721 21.4439 18.3617 22.5752 16.9493 23.9952C15.537 25.4151 14.8308 26.8585 14.8308 28.3252L14.8544 28.6061L14.8779 28.7933L11.8179 25.3293ZM42.9832 22.6142C41.6022 20.4297 38.7462 19.3374 34.4151 19.3374H44.9604L42.9832 22.6142ZM46.4669 25.3293L49.7152 21.0695L53.9993 25.3293L44.8663 35.7214C44.929 35.0973 44.9604 34.6292 44.9604 34.3171C44.9604 33.5057 44.7721 32.7645 44.3955 32.0936C44.0189 31.4226 43.399 30.7906 42.5359 30.1977C41.6728 29.6047 40.4253 29.1444 38.7933 28.8168C37.1613 28.4891 35.1997 28.3252 32.9086 28.3252C30.6489 28.3252 28.5775 28.0288 26.6944 27.4358C24.8113 26.8429 23.8697 26.1407 23.8697 25.3293C23.8697 24.237 24.3876 23.4646 25.4233 23.0121C26.459 22.5596 27.9498 22.3334 29.8956 22.3334H34.4151C35.2311 22.3334 36.0785 22.427 36.9573 22.6142C37.836 22.8015 38.6363 23.1292 39.3582 23.5973C40.0801 24.0654 40.441 24.6427 40.441 25.3293H46.4669Z" fill="white"/>
</svg>
